<svg width="16" height="16" viewBox="0 0 16 16" fill="none" xmlns="http://www.w3.org/2000/svg">
<rect x="1.36499" y="1.36511" width="13.27" height="13.27" rx="0.426677" fill="#0071E3" stroke="#0071E3" stroke-width="0.729978"/>
<path d="M6.91732 11.994C6.77749 11.994 6.65514 11.9273 6.55027 11.7938L4.10487 8.78116C4.06991 8.73667 4.0429 8.69377 4.02383 8.65245C4.00794 8.60796 4 8.56347 4 8.51898C4 8.42364 4.03178 8.3442 4.09534 8.28064C4.16207 8.2139 4.2447 8.18053 4.34321 8.18053C4.4608 8.18053 4.56408 8.23932 4.65306 8.35691L6.90302 11.1646L11.341 4.17637C11.3823 4.11282 11.4252 4.06832 11.4697 4.0429C11.5142 4.0143 11.5729 4 11.646 4C11.7414 4 11.8192 4.03019 11.8796 4.09057C11.94 4.15095 11.9702 4.2304 11.9702 4.32891C11.9702 4.36705 11.9638 4.40677 11.9511 4.44808C11.9384 4.4894 11.9162 4.53548 11.8844 4.58632L7.27006 11.7986C7.18108 11.9289 7.0635 11.994 6.91732 11.994Z" fill="white"/>
</svg>
