<svg width="16" height="16" viewBox="0 0 16 16" fill="none" xmlns="http://www.w3.org/2000/svg">
<path d="M8.40808 14.9344C7.93958 15.403 7.46411 15.6372 6.98169 15.6372C6.49927 15.6418 6.01917 15.4053 5.54138 14.9275L1.10913 10.5092C0.635986 10.0314 0.399414 9.55127 0.399414 9.06885C0.399414 8.58643 0.635986 8.10864 1.10913 7.6355L7.96277 0.809692C8.12048 0.656616 8.26196 0.542969 8.38721 0.46875C8.51245 0.394531 8.65393 0.348145 8.81165 0.32959C8.96936 0.306396 9.17114 0.2948 9.41699 0.2948H12.068C12.2906 0.2948 12.4716 0.313354 12.6107 0.350464C12.7545 0.387573 12.889 0.454834 13.0143 0.552246C13.1395 0.64502 13.2903 0.779541 13.4666 0.955811L15.0947 2.57703C15.271 2.75793 15.4055 2.91101 15.4983 3.03625C15.5911 3.1615 15.656 3.29602 15.6931 3.43982C15.7302 3.57898 15.7488 3.75989 15.7488 3.98254V6.63354C15.7488 6.87939 15.7372 7.08118 15.714 7.23889C15.6954 7.39197 15.649 7.53113 15.5748 7.65637C15.5052 7.78162 15.3916 7.92542 15.2339 8.08777L8.40808 14.9344ZM7.83057 14.2874L14.6285 7.48242C14.7167 7.39893 14.7816 7.30847 14.8234 7.21106C14.8698 7.11365 14.8929 7 14.8929 6.87012V3.9408C14.8929 3.7135 14.8048 3.51172 14.6285 3.33545L12.7081 1.422C12.5365 1.24109 12.337 1.15063 12.1097 1.15063H9.18042C9.05054 1.15063 8.93689 1.17383 8.83948 1.22021C8.74207 1.2666 8.64929 1.33386 8.56116 1.422L1.74231 8.21301C1.46863 8.48669 1.32947 8.76965 1.32483 9.06189C1.32483 9.35413 1.46631 9.64172 1.74927 9.92468L6.11194 14.2874C6.68713 14.8625 7.26001 14.8625 7.83057 14.2874ZM11.2748 5.61768C11.0336 5.61768 10.8318 5.5365 10.6694 5.37415C10.5117 5.21179 10.4329 5.01233 10.4329 4.77576C10.4329 4.53455 10.5117 4.33276 10.6694 4.17041C10.8318 4.00806 11.0336 3.92688 11.2748 3.92688C11.5206 3.92688 11.7224 4.00806 11.8801 4.17041C12.0425 4.33276 12.1237 4.53455 12.1237 4.77576C12.1237 5.01233 12.0425 5.21179 11.8801 5.37415C11.7224 5.5365 11.5206 5.61768 11.2748 5.61768Z" fill="#5856D6"/>
</svg>
