<svg width="16" height="16" viewBox="0 0 16 16" fill="none" xmlns="http://www.w3.org/2000/svg">
<path d="M1.12037 7.75C1.00926 7.75 0.907407 7.77778 0.814815 7.83333C0.722222 7.88889 0.645062 7.96296 0.583333 8.05556C0.527778 8.15432 0.5 8.25926 0.5 8.37037C0.5 8.48765 0.527778 8.59259 0.583333 8.68519C0.645062 8.78395 0.722222 8.86111 0.814815 8.91667C0.907407 8.97222 1.00926 9 1.12037 9H14.8704C14.9877 9 15.0926 8.97222 15.1852 8.91667C15.284 8.86111 15.3611 8.78395 15.4167 8.68519C15.4722 8.59259 15.5 8.48765 15.5 8.37037C15.5 8.25926 15.4722 8.15432 15.4167 8.05556C15.3611 7.96296 15.284 7.88889 15.1852 7.83333C15.0926 7.77778 14.9877 7.75 14.8704 7.75H1.12037Z" fill="black"/>
<path d="M1.12037 2C1.00926 2 0.907407 2.02778 0.814815 2.08333C0.722222 2.13889 0.645062 2.21296 0.583333 2.30556C0.527778 2.40432 0.5 2.50926 0.5 2.62037C0.5 2.73765 0.527778 2.84259 0.583333 2.93519C0.645062 3.03395 0.722222 3.11111 0.814815 3.16667C0.907407 3.22222 1.00926 3.25 1.12037 3.25H14.8704C14.9877 3.25 15.0926 3.22222 15.1852 3.16667C15.284 3.11111 15.3611 3.03395 15.4167 2.93519C15.4722 2.84259 15.5 2.73765 15.5 2.62037C15.5 2.50926 15.4722 2.40432 15.4167 2.30556C15.3611 2.21296 15.284 2.13889 15.1852 2.08333C15.0926 2.02778 14.9877 2 14.8704 2H1.12037Z" fill="black"/>
<path d="M1.12037 12.75C1.00926 12.75 0.907407 12.7778 0.814815 12.8333C0.722222 12.8889 0.645062 12.963 0.583333 13.0556C0.527778 13.1543 0.5 13.2593 0.5 13.3704C0.5 13.4877 0.527778 13.5926 0.583333 13.6852C0.645062 13.784 0.722222 13.8611 0.814815 13.9167C0.907407 13.9722 1.00926 14 1.12037 14H14.8704C14.9877 14 15.0926 13.9722 15.1852 13.9167C15.284 13.8611 15.3611 13.784 15.4167 13.6852C15.4722 13.5926 15.5 13.4877 15.5 13.3704C15.5 13.2593 15.4722 13.1543 15.4167 13.0556C15.3611 12.963 15.284 12.8889 15.1852 12.8333C15.0926 12.7778 14.9877 12.75 14.8704 12.75H1.12037Z" fill="black"/>
</svg>
