<svg width="16" height="16" viewBox="0 0 16 16" fill="none" xmlns="http://www.w3.org/2000/svg">
<path d="M2.4314 9.17362V6.36862L0.504071 5.48501C0.171977 5.33082 0 5.04024 0 4.73187C0 4.42943 0.171977 4.13291 0.504071 3.97873L6.39281 1.28639C7.02141 1.00174 7.50176 0.883136 7.98804 0.889066C8.47433 0.883136 8.95468 1.00174 9.58328 1.28639L15.4661 3.97873C15.8041 4.13291 15.9761 4.42943 15.9761 4.73187C15.9761 5.04024 15.8041 5.33082 15.4661 5.48501L13.5447 6.36862V9.17362C13.5447 10.7096 11.4217 12.2455 7.98804 12.2455C6.4699 12.2455 5.21269 11.949 4.27571 11.4805V11.86C4.56629 11.9371 4.73827 12.1743 4.73827 12.5183V14.0957C4.73827 14.5168 4.47141 14.7777 4.05036 14.7777H3.89024C3.4692 14.7777 3.20233 14.5168 3.20233 14.0957V12.5183C3.20233 12.1743 3.37431 11.9371 3.66489 11.86V11.1247C2.86431 10.5672 2.4314 9.87339 2.4314 9.17362ZM7.98804 7.85711C8.39723 7.85711 8.7827 7.76223 9.30456 7.51908L14.9324 4.94536C15.0391 4.89791 15.0984 4.82082 15.0984 4.73187C15.0984 4.64884 15.0391 4.56582 14.9324 4.51838L9.30456 1.94465C8.7827 1.70744 8.39723 1.61256 7.98804 1.61256C7.57886 1.61256 7.19339 1.70744 6.67153 1.94465L1.04372 4.51838C0.931049 4.56582 0.877677 4.64884 0.877677 4.73187C0.877677 4.82082 0.931049 4.89791 1.04372 4.94536L4.0978 6.3449L6.86723 4.95129C6.81386 4.88605 6.7842 4.80896 6.7842 4.73187C6.7842 4.39977 7.35351 4.11512 7.99991 4.11512C8.65223 4.11512 9.21561 4.39977 9.21561 4.73187C9.21561 5.06989 8.65223 5.35454 7.99991 5.35454C7.80421 5.35454 7.60851 5.33082 7.44246 5.28338L4.75013 6.64141L6.67153 7.51908C7.19339 7.76223 7.57886 7.85711 7.98804 7.85711ZM3.16082 9.17362C3.16082 9.51758 3.33873 9.87932 3.66489 10.2114V6.93199L3.16082 6.70071V9.17362ZM7.98804 8.57467C7.50176 8.58653 7.02141 8.46792 6.39281 8.17734L4.27571 7.21071V10.6799C5.11187 11.1899 6.38095 11.5517 7.98804 11.5517C10.9828 11.5517 12.8093 10.2944 12.8093 9.17362V6.70071L9.58328 8.17734C8.95468 8.46792 8.47433 8.58653 7.98804 8.57467Z" fill="#707070"/>
</svg>
