<svg width="16" height="16" viewBox="0 0 16 16" fill="none" xmlns="http://www.w3.org/2000/svg">
<path d="M4.08 12.6683C3.94133 12.6683 3.824 12.6203 3.728 12.5243C3.63733 12.4283 3.592 12.3136 3.592 12.1803C3.592 12.0416 3.63733 11.9243 3.728 11.8283C3.824 11.7323 3.94133 11.6843 4.08 11.6843H11.944C12.0827 11.6843 12.2 11.7323 12.296 11.8283C12.392 11.9243 12.44 12.0416 12.44 12.1803C12.44 12.3136 12.392 12.4283 12.296 12.5243C12.2 12.6203 12.0827 12.6683 11.944 12.6683H4.08ZM2.304 8.62831C2.16533 8.62831 2.048 8.58298 1.952 8.49231C1.856 8.39631 1.808 8.27898 1.808 8.14031C1.808 8.00164 1.856 7.88431 1.952 7.78831C2.048 7.69231 2.16533 7.64431 2.304 7.64431H13.728C13.8613 7.64431 13.976 7.69231 14.072 7.78831C14.168 7.88431 14.216 8.00164 14.216 8.14031C14.216 8.27898 14.168 8.39631 14.072 8.49231C13.976 8.58298 13.8613 8.62831 13.728 8.62831H2.304ZM0.488 4.58831C0.354667 4.58831 0.24 4.54298 0.144 4.45231C0.048 4.35631 0 4.23898 0 4.10031C0 3.96164 0.048 3.84431 0.144 3.74831C0.24 3.65231 0.354667 3.60431 0.488 3.60431H15.512C15.6453 3.60431 15.76 3.65231 15.856 3.74831C15.952 3.84431 16 3.96164 16 4.10031C16 4.23898 15.952 4.35631 15.856 4.45231C15.76 4.54298 15.6453 4.58831 15.512 4.58831H0.488Z" fill="black"/>
</svg>
