<svg width="16" height="16" viewBox="0 0 16 16" fill="none" xmlns="http://www.w3.org/2000/svg">
<path d="M3.04079 15.1446C2.82564 15.1446 2.66069 15.0944 2.54594 14.9939C2.43598 14.8983 2.381 14.774 2.381 14.621C2.38578 14.4728 2.44793 14.3222 2.56746 14.1692C2.67264 14.0401 2.79695 13.8776 2.94039 13.6815C3.0886 13.4855 3.23442 13.2775 3.37786 13.0576C3.52607 12.8377 3.65516 12.6249 3.76513 12.4193C3.00971 12.0655 2.34992 11.6089 1.78575 11.0495C1.22157 10.4901 0.781712 9.86142 0.466159 9.16338C0.155386 8.46534 0 7.72905 0 6.9545C0 6.06044 0.205588 5.22374 0.616764 4.44442C1.02794 3.6651 1.59928 2.9814 2.33079 2.39332C3.0623 1.80046 3.91095 1.3367 4.87674 1.00202C5.8473 0.667339 6.88959 0.5 8.00359 0.5C9.11759 0.5 10.1575 0.667339 11.1233 1.00202C12.0938 1.3367 12.9449 1.80046 13.6764 2.39332C14.4079 2.9814 14.9768 3.6651 15.3832 4.44442C15.7944 5.22374 16 6.06044 16 6.9545C16 7.73383 15.8494 8.46295 15.5482 9.14186C15.247 9.82078 14.8215 10.4328 14.2716 10.9778C13.7266 11.5229 13.0835 11.9842 12.3424 12.3619C11.6014 12.7349 10.791 13.0098 9.91125 13.1867C9.03152 13.3636 8.11355 13.421 7.15733 13.3588C6.684 13.6791 6.18437 13.9732 5.65845 14.2409C5.13731 14.5134 4.64246 14.731 4.17391 14.8935C3.71014 15.0609 3.33244 15.1446 3.04079 15.1446ZM3.55715 14.2338C3.76752 14.1764 4.04004 14.0664 4.37472 13.9039C4.71418 13.7413 5.07276 13.5524 5.45047 13.3373C5.82818 13.1221 6.18437 12.9046 6.51905 12.6847C6.62423 12.6082 6.72942 12.5508 6.8346 12.5126C6.93979 12.4743 7.04975 12.4576 7.1645 12.4623C7.32706 12.4719 7.47766 12.4815 7.61632 12.491C7.75497 12.4958 7.88406 12.4982 8.00359 12.4982C8.98849 12.4982 9.90886 12.3548 10.7647 12.0679C11.6253 11.7763 12.3783 11.377 13.0238 10.8702C13.674 10.3634 14.1808 9.77536 14.5442 9.10601C14.9123 8.43187 15.0964 7.7147 15.0964 6.9545C15.0964 6.18475 14.9123 5.46758 14.5442 4.803C14.1808 4.13365 13.674 3.54557 13.0238 3.03877C12.3783 2.52719 11.6253 2.12797 10.7647 1.8411C9.90886 1.55424 8.98849 1.4108 8.00359 1.4108C7.01868 1.4108 6.09592 1.55424 5.23532 1.8411C4.37472 2.12797 3.62169 2.52719 2.97624 3.03877C2.33079 3.54557 1.824 4.13365 1.45585 4.803C1.09248 5.46758 0.910802 6.18475 0.910802 6.9545C0.910802 7.62386 1.05424 8.25975 1.3411 8.86217C1.62797 9.46459 2.03915 10.012 2.57463 10.5045C3.11011 10.9969 3.75317 11.4177 4.50381 11.7667C4.67593 11.848 4.77633 11.9484 4.80502 12.0679C4.83849 12.1874 4.81697 12.3213 4.74047 12.4695C4.6066 12.7325 4.41536 13.0217 4.16674 13.3373C3.9229 13.6576 3.70775 13.9325 3.52129 14.162C3.50217 14.1859 3.49499 14.2051 3.49978 14.2194C3.50934 14.2385 3.52846 14.2433 3.55715 14.2338ZM4.69744 7.95854C4.4297 7.95854 4.20021 7.86531 4.00896 7.67884C3.8225 7.4876 3.72927 7.25811 3.72927 6.99036C3.72927 6.72262 3.8225 6.49552 4.00896 6.30905C4.20021 6.11781 4.4297 6.02219 4.69744 6.02219C4.96041 6.02219 5.18512 6.11781 5.37158 6.30905C5.56283 6.49552 5.65845 6.72262 5.65845 6.99036C5.65845 7.25811 5.56522 7.4876 5.37875 7.67884C5.19229 7.86531 4.96519 7.95854 4.69744 7.95854ZM7.99641 7.95854C7.73345 7.95854 7.50635 7.86531 7.3151 7.67884C7.12864 7.4876 7.03541 7.25811 7.03541 6.99036C7.03541 6.72262 7.12864 6.49552 7.3151 6.30905C7.50635 6.11781 7.73345 6.02219 7.99641 6.02219C8.26416 6.02219 8.49126 6.11781 8.67772 6.30905C8.86897 6.49552 8.96459 6.72262 8.96459 6.99036C8.96459 7.25811 8.86897 7.4876 8.67772 7.67884C8.49126 7.86531 8.26416 7.95854 7.99641 7.95854ZM11.3097 7.95854C11.042 7.95854 10.8125 7.86531 10.6212 7.67884C10.4348 7.4876 10.3416 7.25811 10.3416 6.99036C10.3416 6.72262 10.4348 6.49552 10.6212 6.30905C10.8125 6.11781 11.042 6.02219 11.3097 6.02219C11.5727 6.02219 11.7974 6.11781 11.9839 6.30905C12.1751 6.49552 12.2707 6.72262 12.2707 6.99036C12.2707 7.25811 12.1751 7.4876 11.9839 7.67884C11.7974 7.86531 11.5727 7.95854 11.3097 7.95854Z" fill="#707070"/>
</svg>
