<svg width="16" height="16" viewBox="0 0 16 16" fill="none" xmlns="http://www.w3.org/2000/svg">
<path d="M6.32458 15.5904C6.06937 15.5904 5.84606 15.4686 5.65466 15.225L1.19141 9.72639C1.1276 9.64519 1.0783 9.56689 1.0435 9.49148C1.0145 9.41028 1 9.32908 1 9.24788C1 9.07387 1.058 8.92887 1.17401 8.81286C1.29581 8.69106 1.44661 8.63016 1.62642 8.63016C1.84103 8.63016 2.02953 8.73746 2.19194 8.95207L6.29848 14.0765L14.3984 1.32191C14.4739 1.20591 14.5522 1.1247 14.6334 1.0783C14.7146 1.0261 14.8219 1 14.9553 1C15.1293 1 15.2714 1.0551 15.3816 1.16531C15.4918 1.27551 15.5469 1.42051 15.5469 1.60032C15.5469 1.66992 15.5353 1.74242 15.5121 1.81783C15.4889 1.89323 15.4483 1.97733 15.3903 2.07014L6.9684 15.2337C6.80599 15.4715 6.59139 15.5904 6.32458 15.5904Z" fill="black"/>
</svg>
