<svg width="16" height="16" viewBox="0 0 16 16" fill="none" xmlns="http://www.w3.org/2000/svg">
<path d="M1.96667 9.06249C1.69445 9.06249 1.44723 8.99583 1.225 8.86249C1.00833 8.72916 0.833334 8.55138 0.700001 8.32916C0.566667 8.10693 0.5 7.86249 0.5 7.59582C0.5 7.3236 0.566667 7.07638 0.700001 6.85415C0.833334 6.63193 1.00833 6.45693 1.225 6.32915C1.44723 6.19582 1.69445 6.12915 1.96667 6.12915C2.23889 6.12915 2.48612 6.19582 2.70834 6.32915C2.93056 6.45693 3.10556 6.63193 3.23334 6.85415C3.36668 7.07638 3.43334 7.3236 3.43334 7.59582C3.43334 7.86249 3.36668 8.10693 3.23334 8.32916C3.10556 8.55138 2.93056 8.72916 2.70834 8.86249C2.48612 8.99583 2.23889 9.06249 1.96667 9.06249ZM7.90002 9.06249C7.6278 9.06249 7.38058 8.99583 7.15836 8.86249C6.93613 8.72916 6.75835 8.55138 6.62502 8.32916C6.49724 8.10693 6.43335 7.86249 6.43335 7.59582C6.43335 7.3236 6.49724 7.07638 6.62502 6.85415C6.75835 6.63193 6.93613 6.45693 7.15836 6.32915C7.38058 6.19582 7.6278 6.12915 7.90002 6.12915C8.16669 6.12915 8.41114 6.19582 8.63336 6.32915C8.86114 6.45693 9.03892 6.63193 9.1667 6.85415C9.30003 7.07638 9.3667 7.3236 9.3667 7.59582C9.3667 7.86249 9.30003 8.10693 9.1667 8.32916C9.03892 8.55138 8.86114 8.72916 8.63336 8.86249C8.41114 8.99583 8.16669 9.06249 7.90002 9.06249ZM13.8334 9.06249C13.5612 9.06249 13.3139 8.99583 13.0917 8.86249C12.8695 8.72916 12.6917 8.55138 12.5584 8.32916C12.425 8.10693 12.3584 7.86249 12.3584 7.59582C12.3584 7.3236 12.425 7.07638 12.5584 6.85415C12.6917 6.63193 12.8695 6.45693 13.0917 6.32915C13.3139 6.19582 13.5612 6.12915 13.8334 6.12915C14.1 6.12915 14.3445 6.19582 14.5667 6.32915C14.7889 6.45693 14.9667 6.63193 15.1 6.85415C15.2334 7.07638 15.3 7.3236 15.3 7.59582C15.3 7.86249 15.2334 8.10693 15.1 8.32916C14.9667 8.55138 14.7889 8.72916 14.5667 8.86249C14.3445 8.99583 14.1 9.06249 13.8334 9.06249Z" fill="black"/>
</svg>
