<svg width="16" height="16" viewBox="0 0 16 16" fill="none" xmlns="http://www.w3.org/2000/svg">
<path d="M7.67814 12.6398C6.82798 12.6398 6.40289 12.3622 6.40289 11.807C6.40289 11.467 6.50699 11.1043 6.7152 10.7192C6.9234 10.334 7.22356 9.97136 7.61568 9.6313C8.01127 9.28776 8.4884 9.00842 9.04708 8.79327C9.60923 8.57813 10.2425 8.47056 10.9469 8.47056C11.6548 8.47056 12.2881 8.57813 12.8468 8.79327C13.409 9.00842 13.8861 9.28776 14.2782 9.6313C14.6738 9.97136 14.9757 10.334 15.1839 10.7192C15.3921 11.1043 15.4962 11.467 15.4962 11.807C15.4962 12.3622 15.0694 12.6398 14.2157 12.6398H7.67814ZM7.4283 11.8539H14.4656C14.535 11.8539 14.5836 11.8435 14.6113 11.8226C14.6426 11.8018 14.6582 11.7637 14.6582 11.7081C14.6582 11.493 14.5766 11.2466 14.4135 10.969C14.2539 10.6914 14.0162 10.4225 13.7004 10.1622C13.3847 9.90196 12.996 9.68682 12.5345 9.51678C12.073 9.34328 11.5438 9.25653 10.9469 9.25653C10.3501 9.25653 9.82091 9.34328 9.35939 9.51678C8.90134 9.68682 8.51443 9.90196 8.19865 10.1622C7.88288 10.4225 7.64344 10.6914 7.48035 10.969C7.32073 11.2466 7.24091 11.493 7.24091 11.7081C7.24091 11.7637 7.25479 11.8018 7.28255 11.8226C7.31379 11.8435 7.36237 11.8539 7.4283 11.8539ZM10.9521 7.81992C10.5392 7.81992 10.1627 7.71061 9.82264 7.492C9.48258 7.27339 9.21018 6.98017 9.00544 6.61234C8.80418 6.24104 8.70355 5.83331 8.70355 5.38914C8.70355 4.94844 8.80418 4.54765 9.00544 4.18676C9.21018 3.82588 9.48258 3.53786 9.82264 3.32272C10.1627 3.10757 10.5392 3 10.9521 3C11.3686 3 11.7468 3.10584 12.0869 3.31751C12.4269 3.52919 12.6976 3.81547 12.8989 4.17635C13.1001 4.53377 13.2008 4.93456 13.2008 5.37873C13.2008 5.82637 13.0984 6.23584 12.8937 6.60713C12.6924 6.97496 12.4217 7.26992 12.0817 7.492C11.7416 7.71061 11.3651 7.81992 10.9521 7.81992ZM10.9521 7.03395C11.2089 7.03395 11.4432 6.96108 11.6548 6.81534C11.87 6.66612 12.0417 6.4666 12.1701 6.21675C12.2985 5.96344 12.3627 5.6841 12.3627 5.37873C12.3627 5.07683 12.2985 4.80617 12.1701 4.56673C12.0452 4.32383 11.8752 4.13298 11.66 3.99417C11.4484 3.85537 11.2124 3.78597 10.9521 3.78597C10.6954 3.78597 10.4594 3.85711 10.2443 3.99938C10.0326 4.13818 9.86255 4.32904 9.73416 4.57194C9.60576 4.81484 9.54157 5.08724 9.54157 5.38914C9.54157 5.69451 9.60576 5.97211 9.73416 6.22196C9.86602 6.4718 10.0378 6.66959 10.2495 6.81534C10.4646 6.96108 10.6988 7.03395 10.9521 7.03395ZM2.05664 12.6398C1.70616 12.6398 1.44243 12.567 1.26546 12.4212C1.08849 12.279 1 12.0621 1 11.7706C1 11.3403 1.10237 10.9274 1.3071 10.5318C1.51183 10.1327 1.79465 9.77877 2.15553 9.46994C2.51989 9.15763 2.93977 8.91126 3.41517 8.73081C3.89404 8.55037 4.40587 8.46015 4.95067 8.46015C5.23869 8.46015 5.51803 8.48617 5.78869 8.53823C6.05936 8.58681 6.31961 8.66141 6.56946 8.76204C6.82277 8.85921 7.06221 8.98066 7.28776 9.1264C7.16978 9.20968 7.06221 9.29817 6.96504 9.39186C6.86788 9.48208 6.7794 9.57924 6.69958 9.68335C6.52955 9.58271 6.35084 9.49943 6.16346 9.4335C5.97954 9.36757 5.78522 9.31725 5.58049 9.28255C5.37922 9.24785 5.16928 9.2305 4.95067 9.2305C4.52385 9.2305 4.11959 9.2999 3.73788 9.43871C3.35617 9.57404 3.01784 9.75969 2.72289 9.99565C2.42793 10.2281 2.19544 10.4936 2.0254 10.792C1.85884 11.0905 1.77556 11.401 1.77556 11.7237C1.77556 11.7758 1.78771 11.8122 1.812 11.8331C1.83629 11.8573 1.87619 11.8695 1.93171 11.8695H5.74185C5.72449 12.0291 5.75573 12.1801 5.83554 12.3223C5.91535 12.4646 6.01772 12.5704 6.14264 12.6398H2.05664ZM4.95588 7.86677C4.59846 7.86677 4.27227 7.77134 3.97732 7.58049C3.68236 7.38616 3.4464 7.12764 3.26942 6.80493C3.09245 6.48221 3.00396 6.12479 3.00396 5.73268C3.00396 5.3475 3.09245 4.99702 3.26942 4.68125C3.4464 4.362 3.68236 4.10869 3.97732 3.9213C4.27227 3.73045 4.59846 3.63502 4.95588 3.63502C5.31676 3.63502 5.64468 3.72871 5.93964 3.9161C6.23459 4.10348 6.46882 4.35506 6.64233 4.67084C6.8193 4.98661 6.90779 5.33709 6.90779 5.72227C6.90779 6.11438 6.8193 6.47354 6.64233 6.79972C6.46535 7.12591 6.22939 7.38616 5.93443 7.58049C5.63948 7.77134 5.31329 7.86677 4.95588 7.86677ZM4.95588 7.09121C5.16755 7.09121 5.36361 7.03048 5.54405 6.90903C5.72449 6.78411 5.8685 6.61928 5.97607 6.41454C6.08365 6.20634 6.13743 5.97558 6.13743 5.72227C6.13743 5.47589 6.08365 5.25381 5.97607 5.05601C5.87197 4.85822 5.7297 4.70207 5.54926 4.58756C5.37228 4.46957 5.17449 4.41058 4.95588 4.41058C4.74073 4.41058 4.54294 4.46957 4.36249 4.58756C4.18552 4.70554 4.04325 4.86516 3.93568 5.06642C3.83157 5.26422 3.77952 5.4863 3.77952 5.73268C3.77952 5.98252 3.83331 6.21155 3.94088 6.41975C4.04845 6.62448 4.19073 6.78758 4.3677 6.90903C4.54814 7.03048 4.7442 7.09121 4.95588 7.09121Z" fill="#707070"/>
</svg>
