<svg width="16" height="17" viewBox="0 0 16 17" fill="none" xmlns="http://www.w3.org/2000/svg">
<path d="M7.55287 16.063C7.47746 16.063 7.39127 16.0469 7.29431 16.0145C7.19735 15.9822 7.10578 15.9418 7.01959 15.8933C5.88839 15.2308 4.93765 14.6517 4.16735 14.1561C3.39706 13.6659 2.78029 13.1973 2.31704 12.7502C1.85379 12.3031 1.51712 11.8264 1.30704 11.3201C1.10235 10.8083 1 10.205 1 9.51014V3.36935C1 2.93842 1.08349 2.626 1.25048 2.43208C1.41747 2.23816 1.6868 2.06848 2.05848 1.92304C2.2901 1.83146 2.56752 1.72373 2.89072 1.59984C3.21392 1.47594 3.56136 1.34397 3.93303 1.20392C4.30471 1.06386 4.6737 0.926505 5.03999 0.791839C5.40629 0.651785 5.75103 0.525199 6.07423 0.412079C6.40282 0.293573 6.68292 0.196613 6.91455 0.1212C7.0169 0.0888798 7.12194 0.0619466 7.22967 0.0403999C7.3374 0.0134666 7.44514 0 7.55287 0C7.6606 0 7.76833 0.0134666 7.87607 0.0403999C7.9838 0.0619466 8.08884 0.0888798 8.19119 0.1212C8.42281 0.202 8.70023 0.301653 9.02343 0.420159C9.35201 0.533279 9.69945 0.657172 10.0657 0.791839C10.4374 0.926505 10.8064 1.06386 11.1727 1.20392C11.539 1.34397 11.8837 1.47594 12.2069 1.59984C12.5355 1.72373 12.8129 1.83146 13.0392 1.92304C13.4162 2.07386 13.6856 2.24624 13.8472 2.44016C14.0142 2.62869 14.0977 2.93842 14.0977 3.36935V9.51014C14.0977 10.205 13.9953 10.811 13.7906 11.3281C13.5913 11.8399 13.26 12.3193 12.7968 12.7664C12.3335 13.2135 11.7168 13.6821 10.9465 14.1723C10.1762 14.6625 9.22273 15.2362 8.08615 15.8933C7.99457 15.9418 7.90031 15.9822 7.80335 16.0145C7.70639 16.0469 7.62289 16.063 7.55287 16.063ZM7.55287 14.9641C7.61751 14.9641 7.68753 14.948 7.76295 14.9157C7.84375 14.8833 7.92993 14.8375 8.02151 14.7783C8.9534 14.1911 9.74524 13.6902 10.397 13.2754C11.0488 12.8553 11.574 12.462 11.9726 12.0957C12.3766 11.7241 12.6675 11.3228 12.8453 10.8918C13.0284 10.4555 13.12 9.9303 13.12 9.31622V3.56327C13.12 3.35858 13.093 3.20775 13.0392 3.11079C12.9907 3.01383 12.891 2.93573 12.7402 2.87647C12.5194 2.80106 12.2473 2.7041 11.9241 2.5856C11.6063 2.46709 11.2616 2.3405 10.8899 2.20584C10.5182 2.06578 10.1465 1.92842 9.77486 1.79376C9.40857 1.6537 9.06383 1.52442 8.74063 1.40592C8.42281 1.28202 8.15617 1.17698 7.94071 1.0908C7.85991 1.05848 7.78719 1.03424 7.72255 1.01808C7.65791 1.00192 7.60135 0.993838 7.55287 0.993838C7.50439 0.993838 7.44514 1.00192 7.37511 1.01808C7.31047 1.03424 7.23775 1.05848 7.15695 1.0908C6.94687 1.17698 6.68023 1.27933 6.35703 1.39784C6.03922 1.51634 5.69447 1.64293 5.32279 1.7776C4.95111 1.91226 4.57943 2.04962 4.20775 2.18968C3.83608 2.32434 3.48864 2.45362 3.16544 2.57752C2.84762 2.69602 2.58098 2.79568 2.36552 2.87647C2.21469 2.93573 2.11234 3.01383 2.05848 3.11079C2.01 3.20775 1.98576 3.35858 1.98576 3.56327V9.31622C1.98576 9.9303 2.07733 10.4555 2.26048 10.8918C2.44362 11.3228 2.73181 11.7241 3.12504 12.0957C3.52365 12.4674 4.04885 12.8633 4.70063 13.2835C5.35242 13.6983 6.14695 14.1965 7.08423 14.7783C7.1758 14.8375 7.2593 14.8833 7.33471 14.9157C7.41012 14.948 7.48284 14.9641 7.55287 14.9641ZM6.67215 11.4736C6.5698 11.4736 6.47554 11.452 6.38935 11.4089C6.30855 11.3605 6.23044 11.2877 6.15503 11.1908L3.98959 8.59711C3.89263 8.46244 3.84415 8.33316 3.84415 8.20927C3.84415 8.0746 3.88994 7.95879 3.98151 7.86183C4.07847 7.76487 4.19159 7.71639 4.32087 7.71639C4.41245 7.71639 4.49325 7.73524 4.56327 7.77295C4.63869 7.80527 4.71141 7.86721 4.78143 7.95879L6.64791 10.2616L10.3081 4.47631C10.4267 4.29317 10.5721 4.20159 10.7445 4.20159C10.8737 4.20159 10.9896 4.24469 11.0919 4.33087C11.1942 4.41706 11.2454 4.52749 11.2454 4.66215C11.2454 4.72679 11.2293 4.79412 11.1969 4.86415C11.17 4.92879 11.1377 4.99074 11.1 5.04999L7.17311 11.1908C7.04383 11.3793 6.87684 11.4736 6.67215 11.4736Z" fill="#707070"/>
</svg>
