<svg width="16" height="16" viewBox="0 0 16 16" fill="none" xmlns="http://www.w3.org/2000/svg">
<path d="M2.95015 3.45733H3.81826V13.4794H2.95015V3.45733ZM12.1747 3.45733H13.0428V13.4794H12.1747V3.45733ZM2.00441 14.0087C1.33627 14.0087 0.835171 13.844 0.501103 13.5147C0.167034 13.19 0 12.6913 0 12.0184V5.05239C0 4.38425 0.167034 3.88785 0.501103 3.5632C0.835171 3.23383 1.33627 3.06915 2.00441 3.06915H13.9885C14.6614 3.06915 15.1648 3.23383 15.4989 3.5632C15.833 3.88785 16 4.38425 16 5.05239V12.0184C16 12.6913 15.833 13.19 15.4989 13.5147C15.1648 13.844 14.6614 14.0087 13.9885 14.0087H2.00441ZM2.01147 13.1477H13.9815C14.3673 13.1477 14.6543 13.0512 14.8425 12.8583C15.0354 12.6701 15.1319 12.3784 15.1319 11.9831V5.09474C15.1319 4.6995 15.0354 4.40778 14.8425 4.21957C14.6543 4.02666 14.3673 3.9302 13.9815 3.9302H2.01147C1.63035 3.9302 1.34333 4.02666 1.15042 4.21957C0.962211 4.40778 0.868108 4.6995 0.868108 5.09474V11.9831C0.868108 12.3784 0.962211 12.6701 1.15042 12.8583C1.34333 13.0512 1.63035 13.1477 2.01147 13.1477ZM4.52404 3.54908V2.27868C4.52404 1.70465 4.68402 1.27412 5.00397 0.987105C5.32392 0.700088 5.7568 0.55658 6.3026 0.55658H9.68328C10.2573 0.55658 10.6973 0.700088 11.0031 0.987105C11.3136 1.27412 11.4689 1.70465 11.4689 2.27868V3.54202H10.622V2.22927C10.622 1.95167 10.542 1.73758 10.382 1.58702C10.222 1.43645 9.99618 1.36117 9.70445 1.36117H6.28849C5.99677 1.36117 5.77092 1.43645 5.61094 1.58702C5.45096 1.73758 5.37097 1.95167 5.37097 2.22927V3.54908H4.52404Z" fill="#707070"/>
</svg>
