<svg width="16" height="16" viewBox="0 0 16 16" fill="none" xmlns="http://www.w3.org/2000/svg">
<path d="M7.95035 15.3968C6.89626 15.3968 5.90358 15.1947 4.9723 14.7904C4.04614 14.3913 3.22744 13.8387 2.51619 13.1326C1.81005 12.4213 1.25487 11.6026 0.850632 10.6764C0.451513 9.74516 0.251953 8.75248 0.251953 7.69839C0.251953 6.64431 0.451513 5.65419 0.850632 4.72803C1.25487 3.79675 1.81005 2.97804 2.51619 2.27191C3.22232 1.56066 4.03847 1.00547 4.96463 0.606354C5.89591 0.202118 6.88859 0 7.94267 0C8.99676 0 9.98944 0.202118 10.9207 0.606354C11.852 1.00547 12.6707 1.56066 13.3768 2.27191C14.083 2.97804 14.6382 3.79675 15.0424 4.72803C15.4466 5.65419 15.6487 6.64431 15.6487 7.69839C15.6487 8.75248 15.4466 9.74516 15.0424 10.6764C14.6382 11.6026 14.083 12.4213 13.3768 13.1326C12.6707 13.8387 11.852 14.3913 10.9207 14.7904C9.99455 15.1947 9.00443 15.3968 7.95035 15.3968ZM7.95035 14.4067C8.87651 14.4067 9.74383 14.2327 10.5523 13.8847C11.3659 13.5368 12.0797 13.0558 12.6937 12.4418C13.3129 11.8277 13.7939 11.1165 14.1367 10.308C14.4846 9.49443 14.6586 8.62456 14.6586 7.69839C14.6586 6.77223 14.4846 5.90492 14.1367 5.09645C13.7887 4.28286 13.3078 3.56905 12.6937 2.95502C12.0797 2.33587 11.3659 1.85488 10.5523 1.51205C9.74383 1.1641 8.87395 0.990123 7.94267 0.990123C7.01651 0.990123 6.14664 1.1641 5.33305 1.51205C4.52458 1.85488 3.81332 2.33587 3.19929 2.95502C2.59038 3.56905 2.11195 4.28286 1.764 5.09645C1.42117 5.90492 1.24975 6.77223 1.24975 7.69839C1.24975 8.62456 1.42117 9.49443 1.764 10.308C2.11195 11.1165 2.59294 11.8277 3.20697 12.4418C3.821 13.0558 4.53225 13.5368 5.34072 13.8847C6.14919 14.2327 7.01907 14.4067 7.95035 14.4067ZM7.79684 9.26417C7.48471 9.26417 7.32864 9.10555 7.32864 8.7883C7.32864 8.76271 7.32864 8.73457 7.32864 8.70387C7.32864 8.67317 7.32864 8.64502 7.32864 8.61944C7.32864 8.26637 7.41051 7.97727 7.57425 7.75212C7.738 7.52698 7.96826 7.31207 8.26504 7.10739C8.6181 6.86178 8.87395 6.64943 9.03257 6.47034C9.1912 6.29124 9.27051 6.06866 9.27051 5.80258C9.27051 5.49045 9.15282 5.2346 8.91744 5.03504C8.68207 4.83548 8.36482 4.7357 7.9657 4.7357C7.74567 4.7357 7.54611 4.77664 7.36702 4.85851C7.19305 4.94038 7.0421 5.05295 6.91417 5.19622C6.79137 5.33438 6.70182 5.49045 6.64554 5.66442L6.55343 5.81793C6.50738 5.8998 6.44853 5.96376 6.3769 6.00981C6.30526 6.05587 6.21827 6.07889 6.11593 6.07889C6.00848 6.07889 5.91126 6.04307 5.82427 5.97144C5.7424 5.8998 5.70147 5.79746 5.70147 5.66442C5.70147 5.5979 5.70402 5.53906 5.70914 5.48789C5.71937 5.4316 5.72961 5.37532 5.73984 5.31903C5.82683 4.95061 6.06732 4.62569 6.46133 4.34426C6.85533 4.06283 7.36958 3.92211 8.00408 3.92211C8.42366 3.92211 8.80487 3.99631 9.14771 4.1447C9.49566 4.28797 9.77197 4.49777 9.97665 4.77408C10.1864 5.04528 10.2913 5.37276 10.2913 5.75653C10.2913 6.17611 10.1839 6.51639 9.96897 6.77735C9.75406 7.03831 9.45472 7.29928 9.07095 7.56024C8.78952 7.74956 8.58485 7.9261 8.45692 8.08984C8.33412 8.25358 8.27271 8.44802 8.27271 8.67317C8.27271 8.69875 8.27271 8.72434 8.27271 8.74992C8.27271 8.77551 8.27271 8.80365 8.27271 8.83435C8.27271 8.95204 8.22922 9.05438 8.14223 9.14136C8.06036 9.22324 7.94523 9.26417 7.79684 9.26417ZM7.78149 11.4517C7.58705 11.4517 7.42075 11.3826 7.28259 11.2444C7.14443 11.1063 7.07536 10.9451 7.07536 10.7609C7.07536 10.5664 7.14443 10.4027 7.28259 10.2696C7.42075 10.1366 7.58705 10.0701 7.78149 10.0701C7.97593 10.0701 8.14223 10.1366 8.28039 10.2696C8.42366 10.4027 8.4953 10.5664 8.4953 10.7609C8.4953 10.9502 8.42366 11.1139 8.28039 11.2521C8.14223 11.3851 7.97593 11.4517 7.78149 11.4517Z" fill="black"/>
</svg>
