<svg width="16" height="16" viewBox="0 0 16 16" fill="none" xmlns="http://www.w3.org/2000/svg">
<path d="M7.89088 15.7818C6.87891 15.7818 5.92588 15.5877 5.0318 15.1996C4.14263 14.8165 3.35663 14.2859 2.67379 13.608C1.99586 12.9251 1.46285 12.1391 1.07476 11.25C0.691588 10.3559 0.5 9.40286 0.5 8.39088C0.5 7.37891 0.691588 6.42833 1.07476 5.53917C1.46285 4.64509 1.99586 3.85909 2.67379 3.18116C3.35172 2.49832 4.13526 1.96531 5.02443 1.58213C5.91851 1.19404 6.87154 1 7.88352 1C8.89549 1 9.84852 1.19404 10.7426 1.58213C11.6367 1.96531 12.4227 2.49832 13.1006 3.18116C13.7785 3.85909 14.3115 4.64509 14.6996 5.53917C15.0877 6.42833 15.2818 7.37891 15.2818 8.39088C15.2818 9.40286 15.0877 10.3559 14.6996 11.25C14.3115 12.1391 13.7785 12.9251 13.1006 13.608C12.4227 14.2859 11.6367 14.8165 10.7426 15.1996C9.85344 15.5877 8.90286 15.7818 7.89088 15.7818ZM7.89088 14.8312C8.78005 14.8312 9.61272 14.6642 10.3889 14.3301C11.17 13.9961 11.8553 13.5343 12.4448 12.9448C13.0392 12.3553 13.501 11.6724 13.8301 10.8963C14.1642 10.1152 14.3312 9.28005 14.3312 8.39088C14.3312 7.50172 14.1642 6.66905 13.8301 5.89287C13.4961 5.11178 13.0343 4.42648 12.4448 3.83698C11.8553 3.24256 11.17 2.78079 10.3889 2.45165C9.61272 2.1176 8.77759 1.95057 7.88352 1.95057C6.99435 1.95057 6.15922 2.1176 5.37813 2.45165C4.60195 2.78079 3.91911 3.24256 3.32961 3.83698C2.74502 4.42648 2.2857 5.11178 1.95165 5.89287C1.62251 6.66905 1.45794 7.50172 1.45794 8.39088C1.45794 9.28005 1.62251 10.1152 1.95165 10.8963C2.2857 11.6724 2.74748 12.3553 3.33698 12.9448C3.92648 13.5343 4.60932 13.9961 5.3855 14.3301C6.16168 14.6642 6.99681 14.8312 7.89088 14.8312ZM7.88352 9.7099C7.58385 9.7099 7.43156 9.55024 7.42665 9.23092L7.34559 5.28863C7.34068 5.13634 7.38735 5.01107 7.4856 4.91282C7.58385 4.81457 7.71403 4.76545 7.87615 4.76545C8.03335 4.76545 8.16353 4.81703 8.26669 4.92019C8.36985 5.01844 8.41898 5.14125 8.41407 5.28863L8.32564 9.23092C8.32073 9.55024 8.17335 9.7099 7.88352 9.7099ZM7.88352 11.9942C7.69193 11.9942 7.52981 11.9279 7.39718 11.7953C7.26454 11.6626 7.19822 11.5079 7.19822 11.331C7.19822 11.1444 7.26454 10.9872 7.39718 10.8594C7.52981 10.7317 7.69193 10.6678 7.88352 10.6678C8.07019 10.6678 8.22985 10.7317 8.36249 10.8594C8.49512 10.9872 8.56144 11.1444 8.56144 11.331C8.56144 11.5128 8.49267 11.67 8.35512 11.8026C8.22248 11.9304 8.06528 11.9942 7.88352 11.9942Z" fill="black"/>
</svg>
