<svg width="17" height="17" viewBox="0 0 17 17" fill="none" xmlns="http://www.w3.org/2000/svg">
<path d="M8.92676 16.0586C7.83472 16.0586 6.8063 15.8492 5.84149 15.4304C4.88198 15.0169 4.03379 14.4444 3.29693 13.7128C2.56537 12.976 1.9902 12.1278 1.57141 11.1683C1.15792 10.2035 0.951172 9.17505 0.951172 8.08301C0.951172 6.99097 1.15792 5.9652 1.57141 5.00569C1.9902 4.04088 2.56537 3.19269 3.29693 2.46113C4.02849 1.72427 4.87403 1.1491 5.83353 0.735609C6.79834 0.316817 7.82677 0.107422 8.91881 0.107422C10.0108 0.107422 11.0393 0.316817 12.0041 0.735609C12.9689 1.1491 13.8171 1.72427 14.5486 2.46113C15.2802 3.19269 15.8554 4.04088 16.2742 5.00569C16.6929 5.9652 16.9023 6.99097 16.9023 8.08301C16.9023 9.17505 16.6929 10.2035 16.2742 11.1683C15.8554 12.1278 15.2802 12.976 14.5486 13.7128C13.8171 14.4444 12.9689 15.0169 12.0041 15.4304C11.0446 15.8492 10.0188 16.0586 8.92676 16.0586ZM8.92676 15.0328C9.88627 15.0328 10.7848 14.8526 11.6224 14.4921C12.4653 14.1316 13.2048 13.6333 13.8409 12.9972C14.4824 12.361 14.9807 11.6242 15.3359 10.7866C15.6963 9.94371 15.8766 9.04252 15.8766 8.08301C15.8766 7.1235 15.6963 6.22495 15.3359 5.38737C14.9754 4.54449 14.4771 3.80498 13.8409 3.16884C13.2048 2.5274 12.4653 2.02909 11.6224 1.67391C10.7848 1.31343 9.88362 1.1332 8.91881 1.1332C7.9593 1.1332 7.0581 1.31343 6.21522 1.67391C5.37764 2.02909 4.64077 2.5274 4.00464 3.16884C3.3738 3.80498 2.87814 4.54449 2.51766 5.38737C2.16249 6.22495 1.9849 7.1235 1.9849 8.08301C1.9849 9.04252 2.16249 9.94371 2.51766 10.7866C2.87814 11.6242 3.37645 12.361 4.01259 12.9972C4.64873 13.6333 5.38559 14.1316 6.22317 14.4921C7.06075 14.8526 7.96195 15.0328 8.92676 15.0328ZM13.5149 8.87818C13.5149 8.99481 13.4698 9.09553 13.3797 9.18035C13.2949 9.26517 13.1968 9.30757 13.0855 9.30757L10.1354 9.29167C10.0135 9.28637 9.91277 9.24131 9.83325 9.15649C9.74844 9.07697 9.70603 8.9842 9.70603 8.87818C9.70603 8.77216 9.74579 8.67939 9.8253 8.59987C9.90482 8.52035 10.0055 8.48059 10.1275 8.48059L11.4793 8.48855L12.1552 8.50445L11.7894 8.16253L7.83737 4.21052C7.75785 4.1257 7.71544 4.03028 7.71014 3.92425C7.71014 3.81293 7.75255 3.71486 7.83737 3.63004C7.91159 3.55052 8.00436 3.51076 8.11568 3.51076C8.23231 3.50546 8.33303 3.54522 8.41785 3.63004L12.3619 7.58205L12.7038 7.94783L12.6879 7.27193L12.68 5.92809C12.6747 5.80616 12.7171 5.70279 12.8072 5.61797C12.8867 5.53845 12.9795 5.4987 13.0855 5.4987C13.1968 5.4987 13.2896 5.53845 13.3638 5.61797C13.4486 5.70279 13.4911 5.80881 13.4911 5.93604L13.5149 8.87818ZM4.33861 7.30374C4.33861 7.18711 4.37837 7.08904 4.45789 7.00952C4.5427 6.93001 4.64343 6.89025 4.76005 6.89025L7.71014 6.8982C7.83207 6.8982 7.93279 6.94061 8.01231 7.02543C8.09713 7.11025 8.13954 7.20567 8.13954 7.31169C8.13954 7.41771 8.09978 7.51048 8.02026 7.59C7.97785 7.63241 7.93014 7.66422 7.87713 7.68542C7.82942 7.70663 7.77641 7.71723 7.71809 7.71723L6.37425 7.70132L5.68245 7.68542L6.05618 8.02735L10.0082 11.9794C10.093 12.0642 10.1328 12.1622 10.1275 12.2736C10.1275 12.3796 10.0877 12.4724 10.0082 12.5519C9.92868 12.6367 9.83325 12.6791 9.72193 12.6791C9.61061 12.6791 9.51519 12.6367 9.43567 12.5519L5.48366 8.60782L5.13378 8.23409L5.14969 8.91794L5.16559 10.2697C5.16029 10.397 5.11788 10.495 5.03836 10.5639C4.96415 10.6488 4.87138 10.6912 4.76005 10.6912C4.65403 10.6912 4.55861 10.6488 4.47379 10.5639C4.40487 10.4897 4.36511 10.389 4.35451 10.2618L4.33861 7.30374Z" fill="#707070"/>
</svg>
