<svg width="16" height="16" viewBox="0 0 16 16" fill="none" xmlns="http://www.w3.org/2000/svg">
<path d="M3.59876 16C2.90587 16 2.38383 15.8244 2.03264 15.4732C1.68145 15.1268 1.50586 14.6095 1.50586 13.9213V6.63888C1.50586 5.95074 1.68145 5.43345 2.03264 5.087C2.38383 4.73581 2.90587 4.56022 3.59876 4.56022H5.99065V5.43582H3.62012C3.21672 5.43582 2.90825 5.5426 2.69469 5.75616C2.48587 5.96498 2.38146 6.27583 2.38146 6.68872V13.8715C2.38146 14.2844 2.48587 14.5952 2.69469 14.8041C2.90825 15.0176 3.21672 15.1244 3.62012 15.1244H11.7782C12.1721 15.1244 12.4758 15.0176 12.6894 14.8041C12.9077 14.5952 13.0168 14.2844 13.0168 13.8715V6.68872C13.0168 6.27583 12.9077 5.96498 12.6894 5.75616C12.4758 5.5426 12.1721 5.43582 11.7782 5.43582H9.40764V4.56022H11.7995C12.4924 4.56022 13.0145 4.73581 13.3656 5.087C13.7168 5.43819 13.8924 5.95549 13.8924 6.63888V13.9213C13.8924 14.6 13.7168 15.1149 13.3656 15.4661C13.0145 15.822 12.4924 16 11.7995 16H3.59876ZM7.69914 10.5186C7.5805 10.5186 7.47846 10.4782 7.39304 10.3976C7.30761 10.3121 7.2649 10.2101 7.2649 10.0915V2.4246L7.3005 1.38527L6.65269 2.04731L5.44251 3.30732C5.36658 3.39749 5.26692 3.44258 5.14352 3.44258C5.02962 3.44258 4.93471 3.40461 4.85878 3.32868C4.78759 3.25275 4.75199 3.1602 4.75199 3.05105C4.75199 2.94664 4.79233 2.85173 4.87301 2.7663L7.38592 0.317462C7.43812 0.260512 7.48796 0.222546 7.53541 0.203562C7.58762 0.179833 7.64219 0.167969 7.69914 0.167969C7.75609 0.167969 7.8083 0.179833 7.85576 0.203562C7.90796 0.222546 7.96016 0.260512 8.01237 0.317462L10.5182 2.7663C10.6036 2.85173 10.6463 2.94664 10.6463 3.05105C10.6463 3.1602 10.6083 3.25275 10.5324 3.32868C10.4565 3.40461 10.3615 3.44258 10.2476 3.44258C10.129 3.44258 10.0293 3.39749 9.94866 3.30732L8.73848 2.04731L8.10491 1.38527L8.13339 2.4246V10.0915C8.13339 10.2101 8.09067 10.3121 8.00525 10.3976C7.91982 10.4782 7.81779 10.5186 7.69914 10.5186Z" fill="black"/>
</svg>
