<svg width="16" height="16" viewBox="0 0 16 16" fill="none" xmlns="http://www.w3.org/2000/svg">
<path d="M2.4374 11.5087C2.0123 11.5087 1.6903 11.3993 1.47141 11.1804C1.25251 10.9615 1.14307 10.6411 1.14307 10.2191V3.97591C1.14307 3.55081 1.25251 3.22881 1.47141 3.00992C1.6903 2.79103 2.0123 2.68158 2.4374 2.68158H9.42297C9.84806 2.68158 10.1701 2.79261 10.389 3.01468C10.6078 3.23357 10.7173 3.55398 10.7173 3.97591V10.557L9.95117 10.9758V3.99018C9.95117 3.80936 9.90517 3.67453 9.81317 3.58571C9.72117 3.49371 9.58634 3.44771 9.40869 3.44771H2.44691C2.26926 3.44771 2.13443 3.49371 2.04243 3.58571C1.95361 3.67453 1.90919 3.80936 1.90919 3.99018V10.2049C1.90919 10.3825 1.95361 10.5173 2.04243 10.6093C2.13443 10.6982 2.26926 10.7426 2.44691 10.7426H3.47952V11.5087H2.4374ZM10.2985 6.07443V5.30831H11.9831C12.2178 5.30831 12.4177 5.34003 12.5827 5.40348C12.7476 5.46692 12.9015 5.57637 13.0442 5.73182L14.6621 7.55911C14.7954 7.70821 14.8842 7.85096 14.9286 7.98738C14.9762 8.12062 15 8.30461 15 8.53937V10.2191C15 10.6411 14.8906 10.9615 14.6717 11.1804C14.4528 11.3993 14.1308 11.5087 13.7057 11.5087H12.9253V10.7426H13.6914C13.869 10.7426 14.0039 10.6982 14.0959 10.6093C14.1879 10.5173 14.2339 10.3825 14.2339 10.2049V8.52509C14.2339 8.43944 14.2164 8.35061 14.1815 8.25861C14.1498 8.16662 14.1022 8.08413 14.0388 8.01117L12.5446 6.3314C12.4462 6.22354 12.3495 6.15374 12.2543 6.12202C12.1623 6.0903 12.056 6.07443 11.9355 6.07443H10.2985ZM11.6071 8.5822C11.4803 8.5822 11.3803 8.54571 11.3074 8.47275C11.2344 8.39979 11.1979 8.30144 11.1979 8.17772V6.55029H11.788C11.8546 6.55029 11.918 6.56774 11.9783 6.60263C12.0418 6.63436 12.0989 6.67719 12.1496 6.73112L13.5677 8.32523C13.6026 8.3633 13.6295 8.40137 13.6486 8.43944C13.6708 8.47751 13.6819 8.52509 13.6819 8.5822H11.6071ZM4.67392 12.8364C4.37254 12.8364 4.09813 12.7634 3.85069 12.6175C3.60642 12.4715 3.40973 12.2748 3.26063 12.0274C3.1147 11.7831 3.04173 11.5103 3.04173 11.2089C3.04173 10.9107 3.1147 10.6395 3.26063 10.3952C3.40973 10.1478 3.60642 9.95108 3.85069 9.80515C4.09813 9.65922 4.37254 9.58625 4.67392 9.58625C4.97212 9.58625 5.24336 9.65922 5.48763 9.80515C5.73508 9.95108 5.93177 10.1478 6.0777 10.3952C6.22362 10.6395 6.29659 10.9107 6.29659 11.2089C6.29659 11.5103 6.22362 11.7831 6.0777 12.0274C5.93177 12.2748 5.73508 12.4715 5.48763 12.6175C5.24336 12.7634 4.97212 12.8364 4.67392 12.8364ZM4.67392 12.1892C4.85157 12.1892 5.01495 12.1448 5.16405 12.0559C5.31315 11.9703 5.43053 11.8529 5.51619 11.7038C5.60501 11.5547 5.64943 11.3897 5.64943 11.2089C5.64943 11.0281 5.60501 10.8647 5.51619 10.7188C5.43053 10.5697 5.31315 10.4507 5.16405 10.3619C5.01495 10.2731 4.85157 10.2287 4.67392 10.2287C4.49309 10.2287 4.32813 10.2731 4.17903 10.3619C4.02993 10.4507 3.91096 10.5697 3.82214 10.7188C3.73331 10.8647 3.6889 11.0281 3.6889 11.2089C3.6889 11.3897 3.73331 11.5547 3.82214 11.7038C3.91096 11.8529 4.02993 11.9703 4.17903 12.0559C4.32813 12.1448 4.49309 12.1892 4.67392 12.1892ZM11.531 12.8364C11.2328 12.8364 10.96 12.7634 10.7125 12.6175C10.4651 12.4715 10.2684 12.2748 10.1225 12.0274C9.97655 11.7831 9.90358 11.5103 9.90358 11.2089C9.90358 10.9107 9.97655 10.6395 10.1225 10.3952C10.2684 10.1478 10.4651 9.95108 10.7125 9.80515C10.96 9.65922 11.2328 9.58625 11.531 9.58625C11.8292 9.58625 12.1004 9.65922 12.3447 9.80515C12.5922 9.95108 12.7889 10.1478 12.9348 10.3952C13.0807 10.6395 13.1537 10.9107 13.1537 11.2089C13.1537 11.5103 13.0807 11.7831 12.9348 12.0274C12.7889 12.2748 12.5922 12.4715 12.3447 12.6175C12.1004 12.7634 11.8292 12.8364 11.531 12.8364ZM11.531 12.1892C11.7118 12.1892 11.8752 12.1448 12.0211 12.0559C12.1702 11.9703 12.2876 11.8529 12.3733 11.7038C12.4621 11.5547 12.5065 11.3897 12.5065 11.2089C12.5065 11.0281 12.4621 10.8647 12.3733 10.7188C12.2844 10.5697 12.1655 10.4507 12.0164 10.3619C11.8705 10.2731 11.7087 10.2287 11.531 10.2287C11.3502 10.2287 11.1852 10.2731 11.0361 10.3619C10.8902 10.4507 10.7728 10.5697 10.684 10.7188C10.5952 10.8647 10.5507 11.0281 10.5507 11.2089C10.5507 11.3897 10.5952 11.5547 10.684 11.7038C10.7728 11.8529 10.8902 11.9703 11.0361 12.0559C11.1852 12.1448 11.3502 12.1892 11.531 12.1892ZM5.9397 11.5087V10.7426H10.2795V11.5087H5.9397Z" fill="#707070"/>
</svg>
