<svg width="16" height="16" viewBox="0 0 16 16" fill="none" xmlns="http://www.w3.org/2000/svg">
<path d="M12.1923 6.38464H3.57692C2.98216 6.38464 2.5 6.8668 2.5 7.46157V13.9231C2.5 14.5179 2.98216 15 3.57692 15H12.1923C12.7871 15 13.2692 14.5179 13.2692 13.9231V7.46157C13.2692 6.8668 12.7871 6.38464 12.1923 6.38464Z" stroke="#707070" stroke-width="0.753846" stroke-linecap="round" stroke-linejoin="round"/>
<path d="M11.7343 6.38461V4.76923C11.7343 3.76956 11.3372 2.81085 10.6303 2.10399C9.92341 1.39711 8.96469 1 7.96503 1C6.96537 1 6.00665 1.39711 5.29979 2.10399C4.59292 2.81085 4.1958 3.76956 4.1958 4.76923V6.38461" stroke="#707070" stroke-width="0.753846" stroke-linecap="round" stroke-linejoin="round"/>
<path d="M7.42591 10.7152V12.2829C7.42591 12.3965 7.47104 12.5054 7.55137 12.5858C7.63169 12.6661 7.74064 12.7112 7.85424 12.7112C7.96783 12.7112 8.07678 12.6661 8.1571 12.5858C8.23743 12.5054 8.28256 12.3965 8.28256 12.2829V10.7324C8.47291 10.64 8.62662 10.4862 8.71893 10.2958C8.81124 10.1054 8.83678 9.88943 8.79143 9.68274C8.74608 9.47606 8.63249 9.29065 8.46894 9.15638C8.3054 9.02212 8.10142 8.9468 7.88986 8.94257C7.6783 8.93834 7.47148 9.00544 7.30269 9.13306C7.13391 9.26068 7.01299 9.4414 6.95942 9.6461C6.90584 9.85081 6.92272 10.0676 7.00735 10.2615C7.09197 10.4555 7.23941 10.6153 7.42591 10.7152Z" fill="#707070"/>
</svg>
