<svg width="16" height="16" viewBox="0 0 16 16" fill="none" xmlns="http://www.w3.org/2000/svg">
<path d="M-9.24543e-08 3.85511C-6.18458e-08 3.15487 0.177458 2.62729 0.532373 2.27237C0.882494 1.91746 1.40528 1.74 2.10072 1.74L9.46043 1.74C10.1559 1.74 10.6787 1.91746 11.0288 2.27237C11.3837 2.62729 11.5612 3.15487 11.5612 3.85511L11.5612 6.27237L10.6763 6.27237L10.6763 3.87669C10.6763 3.46902 10.5683 3.15727 10.3525 2.94144C10.1415 2.73041 9.82734 2.62489 9.41007 2.62489L2.15108 2.62489C1.73381 2.62489 1.41966 2.73041 1.20863 2.94144C0.992805 3.15727 0.884891 3.46902 0.884891 3.87669L0.884891 12.1213C0.884891 12.5194 0.992805 12.8263 1.20863 13.0422C1.41966 13.2628 1.73381 13.3731 2.15108 13.3731L9.41007 13.3731C9.82734 13.3731 10.1415 13.2628 10.3525 13.0422C10.5683 12.8263 10.6763 12.5194 10.6763 12.1213L10.6763 9.72561L11.5612 9.72561L11.5612 12.1429C11.5612 12.8431 11.3837 13.3707 11.0288 13.7256C10.6739 14.0805 10.1511 14.258 9.46043 14.258L2.10072 14.258C1.41487 14.258 0.894484 14.0805 0.539567 13.7256C0.179855 13.3707 -4.85333e-07 12.8431 -4.54724e-07 12.1429L-9.24543e-08 3.85511ZM5.53957 7.99899C5.53957 7.87909 5.58034 7.77597 5.66187 7.68964C5.7482 7.60331 5.85132 7.56014 5.97122 7.56014L13.7194 7.56014L14.7698 7.59611L14.1007 6.94144L12.8273 5.71842C12.7362 5.64168 12.6906 5.54096 12.6906 5.41626C12.6906 5.30115 12.729 5.20523 12.8058 5.12849C12.8825 5.05655 12.976 5.02057 13.0863 5.02057C13.1918 5.02057 13.2878 5.06134 13.3741 5.14288L15.8489 7.68245C15.9065 7.7352 15.9448 7.78556 15.964 7.83352C15.988 7.88628 16 7.94144 16 7.99899C16 8.05655 15.988 8.1093 15.964 8.15727C15.9448 8.21002 15.9065 8.26278 15.8489 8.31554L13.3741 10.8479C13.2878 10.9342 13.1918 10.9774 13.0863 10.9774C12.976 10.9774 12.8825 10.939 12.8058 10.8623C12.729 10.7856 12.6906 10.6896 12.6906 10.5745C12.6906 10.4546 12.7362 10.3539 12.8273 10.2724L14.1007 9.04935L14.7698 8.40906L13.7194 8.43784L5.97122 8.43784C5.85132 8.43784 5.7482 8.39468 5.66187 8.30834C5.58034 8.22201 5.53957 8.1189 5.53957 7.99899Z" fill="black"/>
</svg>
