<svg width="20" height="20" viewBox="0 0 20 20" fill="none" xmlns="http://www.w3.org/2000/svg">
<g clip-path="url(#clip0_6209_248)">
<path d="M14.27 12.16C14.27 12.33 14.22 12.47 14.11 12.58C14 12.69 13.87 12.75 13.72 12.75C13.57 12.75 13.44 12.69 13.33 12.58C13.22 12.47 13.17 12.34 13.17 12.19V10.13L13.27 7.7L12.36 8.72L6.97 14.1C6.86 14.21 6.73 14.27 6.58 14.27C6.47 14.27 6.38 14.24 6.29 14.19C6.2 14.14 6.13 14.06 6.08 13.98C6.03 13.89 6 13.8 6 13.7C6 13.56 6.06 13.42 6.18 13.3L11.55 7.92L12.57 7.02L10.04 7.1H8.08C7.93 7.1 7.8 7.05 7.69 6.94C7.58 6.83 7.52 6.7 7.52 6.56C7.52 6.42 7.57 6.28 7.68 6.17C7.79 6.06 7.93 6 8.1 6H13.67C13.85 6 14 6.06 14.11 6.17C14.22 6.28 14.27 6.42 14.27 6.6V12.17V12.16Z" fill="black"/>
</g>
<defs>
<clipPath id="clip0_6209_248">
<rect width="8.27" height="8.27" fill="white" transform="translate(6 6)"/>
</clipPath>
</defs>
</svg>
