<svg width="16" height="16" viewBox="0 0 16 16" fill="none" xmlns="http://www.w3.org/2000/svg">
<path d="M2.61681 2.61684C2.73501 2.49863 2.87855 2.43953 3.04741 2.43953C3.21628 2.43953 3.3577 2.49652 3.47169 2.6105L7.75243 6.89124L12.0268 2.61683C12.1408 2.50285 12.2801 2.44375 12.4448 2.43953C12.6136 2.43953 12.7572 2.49863 12.8754 2.61684C12.9936 2.73504 13.0527 2.87858 13.0527 3.04744C13.0527 3.21631 12.9957 3.35773 12.8817 3.47172L8.60731 7.74612L12.8754 12.0142C12.9936 12.1324 13.0527 12.2759 13.0527 12.4448C13.0527 12.6137 12.9936 12.7572 12.8754 12.8754C12.7572 12.9936 12.6136 13.0527 12.4448 13.0527C12.2801 13.0485 12.1387 12.9873 12.0205 12.8691L7.75243 8.601L3.47169 12.8817C3.3577 12.9957 3.21628 13.0527 3.04741 13.0527C2.87855 13.0527 2.73501 12.9936 2.61681 12.8754C2.4986 12.7572 2.4395 12.6137 2.4395 12.4448C2.44372 12.2802 2.50282 12.1408 2.61681 12.0269L6.89755 7.74612L2.61681 3.46538C2.50282 3.3514 2.44372 3.21209 2.4395 3.04744C2.4395 2.87858 2.4986 2.73504 2.61681 2.61684Z" fill="black"/>
</svg>
