<svg width="16" height="16" viewBox="0 0 16 16" fill="none" xmlns="http://www.w3.org/2000/svg">
<path d="M3.71436 2.6263L0.84514 5.43115C0.378382 5.88743 0.368339 6.63412 0.822708 7.09891C1.27708 7.56371 2.0238 7.57061 2.49056 7.11432L5.35977 4.30948C5.82653 3.85319 5.83657 3.10651 5.3822 2.64171C4.92784 2.17692 4.18111 2.17002 3.71436 2.6263Z" stroke="#0071BC" stroke-width="0.633148" stroke-linecap="round" stroke-linejoin="round"/>
<path d="M10.6401 4.29513L13.5094 7.09997C13.9761 7.55625 14.7228 7.54936 15.1772 7.08456C15.6316 6.61976 15.6215 5.87308 15.1548 5.41679L12.2856 2.61195C11.8188 2.15566 11.0721 2.16256 10.6177 2.62736C10.1633 3.09215 10.1734 3.83884 10.6401 4.29513Z" stroke="#0071BC" stroke-width="0.633148" stroke-linecap="round" stroke-linejoin="round"/>
<path d="M5.49805 4.1593L6.62033 5.4107H9.28204L10.5334 4.16923L13.6023 7.22821L12.4304 8.40016V9.88992" stroke="#0071BC" stroke-width="0.633148" stroke-linecap="round" stroke-linejoin="round"/>
<path d="M7.56402 5.52002L6.78935 7.34746C6.72099 7.54162 6.72335 7.75369 6.79603 7.94628C6.86871 8.13887 7.00703 8.29963 7.18662 8.40022C7.40421 8.48584 7.64502 8.49195 7.86667 8.41746C8.08832 8.34297 8.27657 8.19267 8.39829 7.99302L9.04385 7.14883C9.04385 7.14883 9.28222 6.87074 9.55037 7.14883L12.6093 10.1283C12.7054 10.2857 12.7421 10.4722 12.713 10.6542C12.6839 10.8363 12.5908 11.002 12.4504 11.1215C12.3083 11.2563 12.1199 11.3315 11.9241 11.3315C11.7282 11.3315 11.5398 11.2563 11.3977 11.1215L10.5435 10.2475" stroke="#0071BC" stroke-width="0.633148" stroke-linecap="round" stroke-linejoin="round"/>
<path d="M11.5181 11.2656C11.5181 11.2656 12.0842 11.9906 11.4386 12.4773C11.3437 12.5433 11.2363 12.5893 11.123 12.6126C11.0097 12.6359 10.8929 12.6359 10.7796 12.6127C10.6663 12.5895 10.4639 12.4776 10.4639 12.4776C10.4639 12.4776 10.3198 12.3251 10.2269 12.229C10.1341 12.1329 9.09473 11.1067 9.09473 11.1067" stroke="#0071BC" stroke-width="0.633148" stroke-linecap="round" stroke-linejoin="round"/>
<path d="M10.387 12.752C10.3562 12.8452 10.3066 12.931 10.2413 13.0042C10.176 13.0774 10.0963 13.1363 10.0072 13.1774C9.83837 13.2653 9.64567 13.2963 9.45778 13.2659C9.26989 13.2355 9.09684 13.1452 8.96437 13.0085L7.97119 11.9657" stroke="#0071BC" stroke-width="0.633148" stroke-linecap="round" stroke-linejoin="round"/>
<path d="M7.8916 13.7137C8.1399 13.8825 8.45771 13.6342 8.45771 13.6342C8.59412 13.5421 8.69567 13.4069 8.74609 13.2502C8.79651 13.0936 8.79289 12.9245 8.7358 12.7701" stroke="#0071BC" stroke-width="0.633148" stroke-linecap="round" stroke-linejoin="round"/>
<path d="M2.4292 7.26794L3.64087 8.40016V9.36354" stroke="#0071BC" stroke-width="0.633148" stroke-linecap="round" stroke-linejoin="round"/>
<path d="M6.2628 11.0519C6.38142 10.91 6.44133 10.7281 6.43025 10.5435C6.41917 10.3589 6.33795 10.1855 6.20321 10.0587C6.06766 9.93452 5.89048 9.8656 5.70662 9.8656C5.52276 9.8656 5.34557 9.93452 5.21003 10.0587L4.03809 11.3101L5.12065 12.3033L6.2628 11.0519Z" stroke="#0071BC" stroke-width="0.633148" stroke-linecap="round" stroke-linejoin="round"/>
<path d="M7.06753 12.4226C7.13629 12.3543 7.19087 12.273 7.22811 12.1835C7.26535 12.094 7.28453 11.9981 7.28453 11.9011C7.28453 11.8042 7.26535 11.7082 7.22811 11.6188C7.19087 11.5293 7.13629 11.448 7.06753 11.3797C6.99516 11.3138 6.91052 11.2628 6.81843 11.2296C6.72635 11.1965 6.62863 11.1818 6.53085 11.1864C6.43308 11.191 6.33718 11.2148 6.24862 11.2565C6.16007 11.2982 6.0806 11.357 6.01476 11.4294L5.19043 12.353L6.27299 13.3462L7.06753 12.4226Z" stroke="#0071BC" stroke-width="0.633148" stroke-linecap="round" stroke-linejoin="round"/>
<path d="M7.65361 12.9887C7.5117 12.8701 7.32981 12.8102 7.14519 12.8212C6.96056 12.8323 6.78714 12.9135 6.66043 13.0483L6.32275 13.4257L7.39538 14.4189L7.76286 14.0117C7.8797 13.8598 7.93355 13.6688 7.9132 13.4783C7.89286 13.2878 7.79988 13.1124 7.65361 12.9887Z" stroke="#0071BC" stroke-width="0.633148" stroke-linecap="round" stroke-linejoin="round"/>
<path d="M4.89211 10.2475C4.96791 10.1771 5.02823 10.0918 5.06923 9.99682C5.11022 9.90187 5.131 9.79943 5.13023 9.69601C5.12946 9.5926 5.10716 9.49047 5.06476 9.39614C5.02236 9.30182 4.96078 9.21735 4.88394 9.14813C4.80711 9.07891 4.7167 9.02644 4.61847 8.99408C4.52024 8.96171 4.41636 8.95016 4.31342 8.96015C4.21048 8.97014 4.11075 9.00145 4.02058 9.0521C3.93042 9.10275 3.85178 9.17162 3.78969 9.25432L2.90576 10.2475L3.98832 11.2407L4.89211 10.2475Z" stroke="#0071BC" stroke-width="0.633148" stroke-linecap="round" stroke-linejoin="round"/>
</svg>
