<svg width="16" height="16" viewBox="0 0 16 16" fill="none" xmlns="http://www.w3.org/2000/svg">
<path d="M9.89101 2.38099C9.92965 2.28718 9.9909 2.20437 10.0693 2.13995C10.1477 2.07552 10.2408 2.03149 10.3403 2.01175C10.4398 1.99202 10.5427 1.9972 10.6397 2.02684C10.7368 2.05647 10.825 2.10965 10.8965 2.18162L15.8192 7.10436C15.8765 7.16152 15.922 7.22942 15.953 7.30418C15.984 7.37894 16 7.45908 16 7.54002C16 7.62096 15.984 7.7011 15.953 7.77586C15.922 7.85062 15.8765 7.91852 15.8192 7.97568L10.8965 12.8984C10.7809 13.014 10.6242 13.0789 10.4608 13.0789C10.2974 13.0789 10.1407 13.014 10.0252 12.8984C9.90961 12.7829 9.8447 12.6262 9.8447 12.4628C9.8447 12.2994 9.90961 12.1426 10.0252 12.0271L13.8981 8.15536H0.615342C0.452143 8.15536 0.295629 8.09053 0.18023 7.97513C0.0648305 7.85974 0 7.70322 0 7.54002C0 7.37682 0.0648305 7.22031 0.18023 7.10491C0.295629 6.98951 0.452143 6.92468 0.615342 6.92468H13.8981L10.0252 3.05295C9.9387 2.96686 9.87979 2.85701 9.8559 2.73737C9.83202 2.61772 9.84424 2.49368 9.89101 2.38099V2.38099Z" fill="#333030"/>
</svg>
