<svg xmlns="http://www.w3.org/2000/svg" width="50" height="20" xmlns:xlink="http://www.w3.org/1999/xlink" version="1.1" class="myIcon" x="0px" y="0px" viewBox="0 0 150 50" style="enable-background:new 0 0 150 50;" xml:space="preserve">
<style type="text/css">
	.st0{fill:#F79E1B;}
	.st1{fill:#EB001B;}
	.st2{fill:#FF5F00;}
	.st3{fill:#1A1A1A;}
	
</style>
<g>
	<g>
		<g>
			
				<ellipse transform="matrix(0.9239 -0.3827 0.3827 0.9239 0.619 47.8406)" class="st0" cx="120.56" cy="22.36" rx="12.27" ry="12.27"/>
			
				<ellipse transform="matrix(0.9239 -0.3827 0.3827 0.9239 -0.5353 42.0375)" class="st1" cx="105.4" cy="22.36" rx="12.27" ry="12.27"/>
			<path class="st2" d="M108.3,22.36c0,3.91,1.83,7.39,4.69,9.64c2.85-2.25,4.69-5.73,4.69-9.64c0-3.91-1.83-7.39-4.69-9.64     C110.13,14.97,108.3,18.45,108.3,22.36z"/>
		</g>
		<path class="st3" d="M100.28,41.02v-2.04c0.05-0.67-0.46-1.24-1.12-1.29c-0.05,0-0.1,0-0.15,0c-0.46-0.03-0.89,0.19-1.14,0.58    c-0.22-0.37-0.64-0.6-1.07-0.58c-0.38-0.02-0.74,0.16-0.95,0.48v-0.4h-0.71v3.24h0.71v-1.78c-0.06-0.42,0.23-0.8,0.65-0.86    c0.05-0.01,0.1-0.01,0.14-0.01c0.47,0,0.71,0.31,0.71,0.86v1.81h0.71v-1.8c-0.05-0.42,0.24-0.8,0.66-0.86    c0.05-0.01,0.09-0.01,0.14-0.01c0.48,0,0.71,0.31,0.71,0.86v1.81L100.28,41.02z M110.82,37.78h-1.16V36.8h-0.71v0.98h-0.64v0.64    h0.66v1.49c0,0.75,0.29,1.2,1.13,1.2c0.31,0,0.62-0.09,0.88-0.25l-0.2-0.6c-0.19,0.11-0.4,0.18-0.62,0.18    c-0.34,0-0.47-0.22-0.47-0.54v-1.48h1.15L110.82,37.78z M116.84,37.7c-0.35-0.01-0.68,0.17-0.86,0.48v-0.39h-0.7v3.24h0.71V39.2    c0-0.54,0.23-0.83,0.68-0.83c0.15,0,0.3,0.03,0.44,0.08l0.22-0.68c-0.16-0.06-0.33-0.09-0.5-0.09L116.84,37.7z M107.74,38.04    c-0.4-0.24-0.86-0.36-1.32-0.34c-0.82,0-1.36,0.39-1.36,1.04c0,0.53,0.39,0.86,1.12,0.96l0.34,0.05c0.39,0.05,0.57,0.16,0.57,0.34    c0,0.25-0.26,0.39-0.74,0.39c-0.39,0.01-0.77-0.11-1.08-0.34l-0.34,0.55c0.41,0.29,0.9,0.43,1.4,0.42c0.94,0,1.48-0.44,1.48-1.06    s-0.43-0.87-1.13-0.97l-0.34-0.05c-0.31-0.04-0.55-0.1-0.55-0.32c0-0.22,0.23-0.38,0.62-0.38c0.36,0,0.71,0.1,1.02,0.28    L107.74,38.04z M126.64,37.7c-0.35-0.01-0.68,0.17-0.86,0.48v-0.39h-0.7v3.24h0.71V39.2c0-0.54,0.23-0.83,0.68-0.83    c0.15,0,0.3,0.03,0.44,0.08l0.22-0.68c-0.16-0.06-0.33-0.09-0.5-0.09L126.64,37.7z M117.55,39.39c-0.03,0.9,0.67,1.66,1.58,1.7    c0.05,0,0.1,0,0.15,0c0.42,0.02,0.84-0.12,1.17-0.39l-0.34-0.57c-0.24,0.19-0.54,0.29-0.85,0.29c-0.57-0.05-1-0.55-0.95-1.12    c0.04-0.51,0.45-0.91,0.95-0.95c0.31,0,0.6,0.11,0.85,0.29l0.34-0.57c-0.33-0.27-0.74-0.41-1.17-0.39    c-0.9-0.05-1.68,0.64-1.73,1.54c0,0.05,0,0.1,0,0.15V39.39z M124.16,39.39v-1.62h-0.71v0.39c-0.24-0.31-0.62-0.49-1.02-0.48    c-0.94,0-1.7,0.76-1.7,1.7c0,0.94,0.76,1.7,1.7,1.7c0.4,0.01,0.77-0.16,1.02-0.48v0.39h0.71V39.39z M121.53,39.39    c0.03-0.54,0.5-0.95,1.04-0.92c0.54,0.03,0.95,0.5,0.92,1.04c-0.03,0.52-0.46,0.92-0.97,0.92c-0.54,0.01-0.98-0.42-0.99-0.96    C121.53,39.45,121.53,39.42,121.53,39.39z M113.02,37.7c-0.94,0.01-1.69,0.78-1.67,1.72c0.01,0.94,0.78,1.69,1.72,1.67l0,0    c0.49,0.03,0.97-0.13,1.35-0.44l-0.34-0.52c-0.27,0.21-0.6,0.33-0.94,0.34c-0.49,0.04-0.92-0.31-0.97-0.79h2.41    c0-0.09,0-0.18,0-0.27c0-1.02-0.63-1.7-1.54-1.7L113.02,37.7z M113.02,38.33c0.44-0.01,0.81,0.34,0.82,0.79c0,0,0,0,0,0h-1.7    c0.03-0.45,0.41-0.8,0.86-0.79H113.02z M130.7,39.4v-2.92h-0.68v1.7c-0.24-0.31-0.62-0.49-1.02-0.48c-0.94,0-1.7,0.76-1.7,1.7    c0,0.94,0.76,1.7,1.7,1.7c0.4,0.01,0.77-0.16,1.02-0.48v0.39h0.68V39.4z M131.88,40.55c0.04,0,0.09,0.01,0.13,0.02    c0.04,0.02,0.07,0.04,0.11,0.07c0.03,0.03,0.05,0.06,0.07,0.1c0.03,0.08,0.03,0.17,0,0.25c-0.02,0.04-0.04,0.07-0.07,0.1    c-0.03,0.03-0.07,0.05-0.11,0.07c-0.04,0.02-0.08,0.03-0.13,0.03c-0.13,0-0.25-0.08-0.31-0.2c-0.03-0.08-0.03-0.17,0-0.25    c0.02-0.04,0.04-0.07,0.07-0.1c0.03-0.03,0.07-0.05,0.11-0.07c0.04-0.02,0.09-0.03,0.14-0.02H131.88z M131.88,41.13    c0.03,0,0.07-0.01,0.1-0.02c0.03-0.01,0.06-0.03,0.08-0.05c0.09-0.1,0.09-0.24,0-0.34c-0.02-0.02-0.05-0.04-0.08-0.05    c-0.03-0.01-0.06-0.02-0.1-0.02c-0.03,0-0.07,0.01-0.1,0.02c-0.03,0.01-0.06,0.03-0.08,0.05c-0.09,0.1-0.09,0.24,0,0.34    c0.02,0.02,0.05,0.04,0.08,0.05c0.03,0.01,0.07,0.02,0.11,0.02H131.88z M131.9,40.72c0.03,0,0.06,0.01,0.09,0.03    c0.02,0.02,0.03,0.04,0.03,0.07c0,0.02-0.01,0.04-0.02,0.06c-0.02,0.02-0.04,0.03-0.07,0.03l0.1,0.11h-0.08l-0.09-0.11h-0.03v0.11    h-0.06v-0.3L131.9,40.72z M131.82,40.78v0.08h0.07c0.01,0,0.03,0,0.04,0c0-0.01,0-0.02,0-0.03c0-0.01,0-0.02,0-0.03    c-0.01,0-0.03,0-0.04,0L131.82,40.78z M128.09,39.4c0.03-0.54,0.5-0.95,1.04-0.92c0.54,0.03,0.95,0.5,0.92,1.04    c-0.03,0.52-0.46,0.92-0.97,0.92c-0.54,0.01-0.98-0.42-0.99-0.96C128.09,39.45,128.09,39.43,128.09,39.4z M104.26,39.4v-1.62    h-0.71v0.39c-0.24-0.31-0.62-0.49-1.02-0.48c-0.94,0-1.7,0.76-1.7,1.7c0,0.94,0.76,1.7,1.7,1.7c0.4,0.01,0.77-0.16,1.02-0.48v0.39    h0.71V39.4z M101.63,39.4c0.03-0.54,0.5-0.95,1.04-0.92c0.54,0.03,0.95,0.5,0.92,1.04c-0.03,0.52-0.46,0.92-0.97,0.92    c-0.54,0.01-0.98-0.42-0.99-0.95C101.62,39.46,101.62,39.43,101.63,39.4L101.63,39.4z"/>
	</g>
	<g>
		<path fill="black" class="st4" d="M51.79,21.74c-0.04,3.01,2.68,4.69,4.73,5.69c2.11,1.03,2.81,1.68,2.81,2.6c-0.03,2.59-4.81,2.59-8.79,0.73    l-0.98,4.58c5.17,2.38,15.4,1.37,15.43-6.04c0.02-5.52-7.63-5.82-7.58-8.29c0.06-2.57,5.23-1.92,7.63-0.81L66,15.75    C58.69,13.09,51.83,16.32,51.79,21.74"/>
		<path class="st4" fill="black" d="M79.75,15.21h-4.62h0c-1.04,0-1.91,0.61-2.3,1.53l-8.12,19.38h5.68L71.52,33h6.94l0.66,3.12h5L79.75,15.21z     M73.08,28.71l2.85-7.85l1.64,7.85H73.08z"/>
		<polyline class="st4" fill="black" points="44.91,15.21 40.43,36.12 45.84,36.12 50.32,15.21 44.91,15.21   "/>
		<path class="st4" fill="black" d="M36.91,15.21l-5.63,14.23L29,17.34c-0.27-1.35-1.32-2.13-2.49-2.13H17.3l-0.13,0.61    c3.98,0.86,6.09,1.53,6.62,3.62l4.31,16.69h5.72l8.77-20.91H36.91"/>
	</g>
</g>
</svg>