<svg width="16" height="16" viewBox="0 0 16 16" fill="none" xmlns="http://www.w3.org/2000/svg">
<path d="M1.12037 7.12451C1.00926 7.12451 0.907407 7.15229 0.814815 7.20785C0.722222 7.2634 0.645062 7.33747 0.583333 7.43007C0.527778 7.52883 0.5 7.63377 0.5 7.74488C0.5 7.86217 0.527778 7.9671 0.583333 8.0597C0.645062 8.15846 0.722222 8.23562 0.814815 8.29118C0.907407 8.34673 1.00926 8.37451 1.12037 8.37451H14.8704C14.9877 8.37451 15.0926 8.34673 15.1852 8.29118C15.284 8.23562 15.3611 8.15846 15.4167 8.0597C15.4722 7.9671 15.5 7.86217 15.5 7.74488C15.5 7.63377 15.4722 7.52883 15.4167 7.43007C15.3611 7.33747 15.284 7.2634 15.1852 7.20785C15.0926 7.15229 14.9877 7.12451 14.8704 7.12451H1.12037Z" fill="black"/>
</svg>
