<svg width="16" height="16" viewBox="0 0 16 16" fill="none" xmlns="http://www.w3.org/2000/svg">
<path d="M3.24431 11.7173C3.0549 11.7173 2.90208 11.6611 2.78585 11.5486C2.66962 11.4317 2.6115 11.2803 2.6115 11.0942V9.89338C2.6115 9.7073 2.66962 9.55801 2.78585 9.4455C2.90208 9.32866 3.0549 9.27025 3.24431 9.27025H4.82632C5.01573 9.27025 5.16855 9.32866 5.28478 9.4455C5.40101 9.55801 5.45912 9.7073 5.45912 9.89338V11.0942C5.45912 11.2803 5.40101 11.4317 5.28478 11.5486C5.16855 11.6611 5.01573 11.7173 4.82632 11.7173H3.24431ZM0.919717 6.82316V5.37568H15.0997V6.82316H0.919717ZM2.39841 13.8334C1.76991 13.8334 1.29639 13.6754 0.977832 13.3595C0.659277 13.0436 0.5 12.572 0.5 11.9445V4.89535C0.5 4.26357 0.659277 3.78973 0.977832 3.47384C1.29639 3.15795 1.76991 3 2.39841 3H13.5952C14.228 3 14.7037 3.16011 15.0222 3.48033C15.3408 3.80055 15.5001 4.27222 15.5001 4.89535V11.9445C15.5001 12.5676 15.3408 13.0372 15.0222 13.353C14.7037 13.6733 14.228 13.8334 13.5952 13.8334H2.39841ZM2.41779 13.0415H13.5823C13.9396 13.0415 14.2151 12.9463 14.4088 12.7559C14.6068 12.5612 14.7058 12.2755 14.7058 11.8991V4.9343C14.7058 4.56215 14.6068 4.27871 14.4088 4.08399C14.2151 3.88926 13.9396 3.79189 13.5823 3.79189H2.41779C2.05188 3.79189 1.77207 3.88926 1.57835 4.08399C1.38894 4.27871 1.29423 4.56215 1.29423 4.9343V11.8991C1.29423 12.2755 1.38894 12.5612 1.57835 12.7559C1.77207 12.9463 2.05188 13.0415 2.41779 13.0415Z" fill="#0071BC"/>
</svg>
