<svg xmlns="http://www.w3.org/2000/svg" width="50" height="20" xmlns:xlink="http://www.w3.org/1999/xlink" version="1.1" class="myIcon" x="0px" y="0px" viewBox="0 0 150 50" style="enable-background:new 0 0 150 50;" xml:space="preserve">
<style type="text/css">
	.st00{fill:#283480;}
	.st11{fill:#009EE2;}
	.st22{fill:#FFFFFF;}
</style>
<g>
	<g>
		<path class="st00" d="M60.75,23.13c0-7.22-8.97-13.11-20.04-13.11c-11.07,0-20.04,5.89-20.04,13.11c0,0.19,0,0.7,0,0.77    c0,7.66,7.84,13.87,20.04,13.87c12.27,0,20.04-6.2,20.04-13.86C60.75,23.63,60.75,23.47,60.75,23.13z"/>
		<path class="st11" d="M59.99,23.12c0,6.81-8.63,12.33-19.27,12.33c-10.64,0-19.27-5.52-19.27-12.33c0-6.81,8.63-12.33,19.27-12.33    C51.36,10.79,59.99,16.31,59.99,23.12z"/>
		<g>
			<path class="st22" d="M34.32,19.23c-0.01,0.02-0.2,0.22-0.08,0.38c0.3,0.39,1.24,0.61,2.19,0.4c0.57-0.13,1.29-0.7,1.99-1.26     c0.76-0.6,1.52-1.21,2.27-1.45c0.8-0.26,1.32-0.15,1.66-0.04c0.37,0.11,0.81,0.36,1.51,0.88c1.32,0.99,6.62,5.62,7.54,6.42     c0.74-0.33,4.02-1.74,8.47-2.73c-0.39-2.38-1.83-4.55-4.02-6.33c-3.05,1.28-6.79,1.95-10.44,0.17c-0.02-0.01-1.99-0.94-3.94-0.9     c-2.9,0.07-4.15,1.32-5.48,2.65L34.32,19.23z"/>
			<path class="st22" d="M51.19,25.06c-0.06-0.06-6.23-5.46-7.63-6.51c-0.81-0.61-1.26-0.76-1.73-0.82     c-0.25-0.03-0.59,0.01-0.82,0.08c-0.65,0.18-1.5,0.75-2.26,1.34c-0.78,0.62-1.52,1.21-2.2,1.36c-0.87,0.2-1.94-0.04-2.43-0.36     c-0.2-0.13-0.34-0.29-0.4-0.44c-0.18-0.42,0.15-0.75,0.21-0.81l1.7-1.84c0.2-0.2,0.4-0.4,0.6-0.59     c-0.55,0.07-1.06,0.21-1.55,0.35c-0.62,0.17-1.21,0.34-1.81,0.34c-0.25,0-1.59-0.22-1.85-0.29c-1.54-0.42-2.89-0.83-4.91-1.78     c-2.42,1.8-4.04,4.06-4.51,6.54c0.35,0.09,0.91,0.26,1.14,0.31c5.48,1.22,7.19,2.47,7.5,2.74c0.34-0.37,0.82-0.61,1.36-0.61     c0.61,0,1.15,0.31,1.48,0.78c0.31-0.25,0.75-0.46,1.31-0.46c0.25,0,0.52,0.05,0.78,0.14c0.62,0.21,0.94,0.62,1.1,1     c0.21-0.09,0.46-0.16,0.76-0.16c0.29,0,0.6,0.07,0.91,0.2c1.01,0.43,1.17,1.43,1.08,2.17c0.07-0.01,0.14-0.01,0.22-0.01     c1.2,0,2.17,0.97,2.17,2.17c0,0.37-0.09,0.72-0.26,1.03c0.33,0.18,1.16,0.6,1.89,0.51c0.58-0.07,0.8-0.27,0.88-0.38     c0.05-0.08,0.11-0.17,0.06-0.23l-1.55-1.72c0,0-0.25-0.24-0.17-0.33c0.09-0.1,0.24,0.04,0.36,0.13c0.79,0.66,1.75,1.65,1.75,1.65     c0.02,0.01,0.08,0.14,0.44,0.2c0.31,0.05,0.85,0.02,1.22-0.29c0.09-0.08,0.19-0.17,0.27-0.27c-0.01,0-0.01,0.01-0.02,0.01     c0.4-0.51-0.04-1.02-0.04-1.02l-1.8-2.03c0,0-0.26-0.24-0.17-0.33c0.08-0.08,0.24,0.04,0.36,0.14c0.57,0.48,1.38,1.29,2.15,2.05     c0.15,0.11,0.83,0.53,1.73-0.06c0.55-0.36,0.66-0.8,0.64-1.13c-0.04-0.44-0.38-0.75-0.38-0.75l-2.47-2.48     c0,0-0.26-0.22-0.17-0.33c0.08-0.09,0.24,0.04,0.36,0.13c0.79,0.66,2.91,2.61,2.91,2.61c0.03,0.02,0.76,0.54,1.67-0.03     c0.32-0.21,0.53-0.52,0.55-0.88C51.64,25.43,51.19,25.06,51.19,25.06z"/>
			<path class="st22" d="M39.23,28.2c-0.38,0-0.8,0.22-0.86,0.19c-0.03-0.02,0.02-0.17,0.06-0.26c0.04-0.09,0.54-1.6-0.69-2.13     c-0.94-0.4-1.51,0.05-1.71,0.26c-0.05,0.05-0.08,0.05-0.08-0.02c-0.02-0.27-0.14-1.01-0.95-1.26c-1.16-0.35-1.9,0.45-2.09,0.75     c-0.08-0.66-0.64-1.17-1.33-1.17c-0.74,0-1.35,0.6-1.35,1.34c0,0.74,0.6,1.34,1.34,1.34c0.36,0,0.69-0.14,0.93-0.38     c0.01,0.01,0.01,0.02,0.01,0.05c-0.06,0.33-0.16,1.54,1.1,2.03c0.51,0.2,0.94,0.05,1.3-0.2c0.11-0.08,0.12-0.04,0.11,0.06     c-0.05,0.31,0.01,0.98,0.95,1.35c0.71,0.29,1.13-0.01,1.41-0.26c0.12-0.11,0.15-0.09,0.16,0.08c0.03,0.9,0.78,1.61,1.69,1.61     c0.93,0,1.69-0.76,1.69-1.69C40.93,28.96,40.17,28.21,39.23,28.2z"/>
		</g>
		<path class="st00" d="M51.43,24.41c-1.9-1.66-6.3-5.48-7.49-6.37c-0.68-0.51-1.14-0.78-1.55-0.9c-0.18-0.06-0.44-0.12-0.76-0.12    c-0.3,0-0.63,0.05-0.97,0.16c-0.77,0.24-1.54,0.85-2.28,1.44l-0.04,0.03c-0.69,0.55-1.4,1.12-1.94,1.24    c-0.24,0.05-0.48,0.08-0.72,0.08c-0.6,0-1.15-0.18-1.35-0.44c-0.03-0.04-0.01-0.11,0.07-0.21l0.01-0.01l1.67-1.8    c1.31-1.31,2.55-2.55,5.4-2.61c0.05,0,0.1,0,0.14,0c1.77,0,3.55,0.79,3.74,0.89c1.66,0.81,3.38,1.22,5.1,1.22    c1.8,0,3.65-0.44,5.6-1.34c-0.22-0.18-0.44-0.36-0.68-0.54c-1.71,0.74-3.35,1.12-4.92,1.12c-1.61,0-3.22-0.39-4.78-1.15    c-0.08-0.04-2.04-0.96-4.08-0.96c-0.05,0-0.11,0-0.16,0c-2.39,0.06-3.74,0.91-4.65,1.65c-0.88,0.02-1.64,0.23-2.32,0.42    c-0.6,0.17-1.12,0.31-1.63,0.31c-0.21,0-0.59-0.02-0.62-0.02c-0.58-0.02-3.53-0.74-5.87-1.63c-0.24,0.17-0.47,0.34-0.69,0.52    c2.45,1,5.43,1.78,6.37,1.84c0.26,0.02,0.54,0.05,0.82,0.05c0.62,0,1.24-0.17,1.84-0.34c0.35-0.1,0.75-0.21,1.16-0.29    c-0.11,0.11-0.22,0.22-0.33,0.33l-1.7,1.84c-0.13,0.14-0.42,0.5-0.23,0.94c0.08,0.18,0.23,0.35,0.45,0.5    c0.4,0.27,1.13,0.46,1.8,0.46c0.26,0,0.5-0.03,0.72-0.08c0.71-0.16,1.46-0.76,2.25-1.38c0.63-0.5,1.53-1.14,2.21-1.32    c0.19-0.05,0.43-0.08,0.62-0.08c0.06,0,0.11,0,0.16,0.01c0.45,0.06,0.89,0.21,1.67,0.8c1.39,1.05,7.57,6.45,7.63,6.5    c0,0,0.4,0.34,0.37,0.91c-0.01,0.31-0.19,0.59-0.49,0.79c-0.26,0.17-0.54,0.25-0.81,0.25c-0.41,0-0.7-0.19-0.72-0.21    c-0.02-0.02-2.14-1.96-2.92-2.61c-0.12-0.1-0.24-0.2-0.37-0.2c-0.07,0-0.12,0.03-0.16,0.08c-0.12,0.15,0.01,0.36,0.18,0.5    l2.47,2.48c0,0,0.31,0.29,0.34,0.67c0.02,0.41-0.18,0.76-0.59,1.02c-0.29,0.19-0.59,0.29-0.88,0.29c-0.38,0-0.65-0.17-0.7-0.21    l-0.35-0.35c-0.65-0.64-1.32-1.3-1.81-1.7c-0.12-0.1-0.25-0.19-0.37-0.19c-0.06,0-0.11,0.02-0.16,0.07    c-0.06,0.06-0.09,0.17,0.04,0.36c0.06,0.08,0.12,0.14,0.12,0.14l1.8,2.02c0.01,0.02,0.37,0.44,0.04,0.86l-0.06,0.08    c-0.05,0.06-0.11,0.11-0.17,0.16c-0.31,0.25-0.72,0.28-0.88,0.28c-0.09,0-0.17-0.01-0.24-0.02c-0.18-0.03-0.3-0.08-0.36-0.15    l-0.02-0.02c-0.1-0.1-1.01-1.03-1.76-1.66c-0.1-0.08-0.22-0.19-0.35-0.19c-0.06,0-0.12,0.02-0.16,0.07    c-0.15,0.16,0.07,0.41,0.17,0.5l1.54,1.7c0,0.01-0.02,0.05-0.06,0.1c-0.05,0.08-0.24,0.26-0.8,0.33c-0.07,0.01-0.14,0.01-0.2,0.01    c-0.58,0-1.19-0.28-1.5-0.45c0.14-0.3,0.22-0.64,0.22-0.97c0-1.27-1.03-2.29-2.29-2.3c-0.03,0-0.06,0-0.08,0    c0.04-0.58-0.04-1.67-1.16-2.15c-0.32-0.14-0.65-0.21-0.96-0.21c-0.25,0-0.48,0.04-0.7,0.13c-0.23-0.45-0.62-0.78-1.12-0.95    c-0.28-0.1-0.56-0.15-0.82-0.15c-0.47,0-0.9,0.14-1.28,0.41c-0.37-0.46-0.92-0.73-1.51-0.73c-0.51,0-1,0.2-1.37,0.57    c-0.48-0.37-2.38-1.57-7.46-2.73c-0.25-0.06-0.81-0.22-1.16-0.32c-0.06,0.28-0.1,0.55-0.13,0.83c0,0,0.94,0.22,1.12,0.27    c5.19,1.15,6.91,2.35,7.2,2.58c-0.1,0.24-0.15,0.49-0.15,0.75c0,1.07,0.87,1.95,1.94,1.95c0.12,0,0.24-0.01,0.36-0.03    c0.16,0.79,0.68,1.39,1.47,1.69c0.23,0.09,0.46,0.13,0.69,0.13c0.15,0,0.3-0.02,0.44-0.06c0.15,0.37,0.47,0.83,1.21,1.13    c0.26,0.1,0.51,0.16,0.76,0.16c0.2,0,0.4-0.04,0.59-0.11c0.35,0.86,1.19,1.42,2.12,1.42c0.62,0,1.21-0.25,1.64-0.7    c0.37,0.21,1.15,0.58,1.94,0.58c0.1,0,0.2-0.01,0.29-0.02c0.78-0.1,1.15-0.41,1.32-0.64c0.03-0.04,0.06-0.09,0.08-0.13    c0.19,0.05,0.39,0.1,0.62,0.1c0.43,0,0.84-0.15,1.26-0.45c0.41-0.29,0.7-0.72,0.74-1.08c0,0,0-0.01,0-0.02    c0.14,0.03,0.28,0.04,0.42,0.04c0.44,0,0.87-0.14,1.29-0.41c0.8-0.52,0.94-1.21,0.93-1.66c0.14,0.03,0.28,0.04,0.42,0.04    c0.41,0,0.82-0.12,1.21-0.37c0.5-0.32,0.79-0.8,0.84-1.37c0.03-0.38-0.06-0.77-0.27-1.1c1.34-0.58,4.4-1.69,8.01-2.51    c-0.02-0.28-0.06-0.56-0.11-0.83C55.5,22.64,52.25,24.05,51.43,24.41z M39.23,31.46c-0.85,0-1.54-0.66-1.57-1.5    c0-0.07-0.01-0.26-0.17-0.26c-0.07,0-0.12,0.04-0.19,0.1c-0.19,0.17-0.42,0.35-0.77,0.35c-0.16,0-0.33-0.04-0.51-0.11    c-0.89-0.36-0.91-0.98-0.87-1.22c0.01-0.07,0.01-0.13-0.03-0.19l-0.05-0.05h-0.06c-0.05,0-0.09,0.02-0.16,0.06    c-0.26,0.18-0.51,0.27-0.76,0.27c-0.14,0-0.28-0.03-0.42-0.08c-1.18-0.46-1.08-1.57-1.03-1.9c0.01-0.07-0.01-0.12-0.05-0.16    l-0.08-0.07l-0.08,0.07c-0.23,0.22-0.53,0.34-0.85,0.34c-0.67,0-1.22-0.55-1.22-1.22c0-0.67,0.55-1.22,1.22-1.22    c0.61,0,1.13,0.46,1.21,1.07l0.04,0.33l0.18-0.28c0.02-0.03,0.51-0.78,1.42-0.78c0.17,0,0.35,0.03,0.53,0.08    c0.72,0.22,0.85,0.88,0.87,1.15c0.01,0.16,0.13,0.17,0.15,0.17c0.06,0,0.11-0.04,0.14-0.07c0.14-0.14,0.43-0.38,0.9-0.38    c0.21,0,0.44,0.05,0.67,0.15c1.15,0.49,0.63,1.96,0.62,1.97c-0.1,0.24-0.1,0.35-0.01,0.41l0.05,0.02h0.03    c0.05,0,0.12-0.02,0.22-0.06c0.16-0.05,0.39-0.14,0.61-0.14h0c0.87,0.01,1.57,0.71,1.57,1.57C40.8,30.76,40.1,31.46,39.23,31.46z"/>
	</g>
	<g>
		<path class="st00" d="M129.04,14.77c-0.72-0.91-1.82-1.36-3.3-1.36c-1.47,0-2.57,0.45-3.29,1.36c-0.72,0.91-1.09,1.98-1.09,3.21    c0,1.26,0.36,2.33,1.09,3.23c0.72,0.89,1.82,1.34,3.29,1.34c1.47,0,2.57-0.45,3.3-1.34c0.72-0.89,1.09-1.97,1.09-3.23    C130.13,16.75,129.77,15.68,129.04,14.77z M127.25,19.97c-0.35,0.47-0.85,0.7-1.51,0.7c-0.65,0-1.16-0.23-1.51-0.7    c-0.35-0.47-0.53-1.13-0.53-1.99c0-0.86,0.18-1.52,0.53-1.98c0.35-0.46,0.86-0.69,1.51-0.69c0.66,0,1.16,0.23,1.51,0.69    c0.35,0.46,0.53,1.12,0.53,1.98C127.78,18.84,127.6,19.51,127.25,19.97z"/>
		<path class="st00" d="M110.56,14.02c-0.73-0.37-1.57-0.56-2.52-0.56c-1.45,0-2.48,0.38-3.07,1.14c-0.38,0.48-0.59,1.1-0.63,1.85    h2.17c0.05-0.33,0.16-0.59,0.32-0.79c0.22-0.26,0.6-0.39,1.14-0.39c0.48,0,0.84,0.07,1.09,0.2c0.25,0.13,0.37,0.38,0.37,0.73    c0,0.29-0.16,0.5-0.48,0.64c-0.18,0.08-0.48,0.14-0.9,0.2l-0.77,0.09c-0.87,0.11-1.54,0.29-1.99,0.55    c-0.82,0.47-1.23,1.24-1.23,2.3c0,0.81,0.25,1.44,0.77,1.89c0.51,0.44,1.16,0.63,1.94,0.67c4.91,0.22,4.85-2.59,4.9-3.17v-3.23    C111.66,15.09,111.29,14.39,110.56,14.02z M109.42,18.91c-0.01,0.75-0.23,1.27-0.64,1.55c-0.41,0.28-0.87,0.43-1.36,0.43    c-0.31,0-0.57-0.09-0.79-0.26c-0.22-0.17-0.32-0.45-0.32-0.83c0-0.43,0.18-0.75,0.53-0.95c0.21-0.12,0.55-0.22,1.03-0.31l0.51-0.1    c0.25-0.05,0.46-0.1,0.6-0.16c0.15-0.05,0.29-0.13,0.44-0.22V18.91z"/>
		<path class="st00" d="M99.37,15.38c0.56,0,0.97,0.17,1.24,0.52c0.18,0.26,0.3,0.55,0.34,0.87h2.42c-0.13-1.22-0.56-2.07-1.28-2.56    c-0.72-0.48-1.65-0.72-2.78-0.72c-1.33,0-2.38,0.41-3.14,1.23c-0.76,0.82-1.14,1.96-1.14,3.43c0,1.3,0.34,2.36,1.03,3.18    c0.69,0.82,1.76,1.23,3.21,1.23c1.46,0,2.55-0.49,3.3-1.47c0.46-0.61,0.72-1.25,0.78-1.93h-2.41c-0.05,0.45-0.19,0.82-0.42,1.1    c-0.23,0.28-0.62,0.42-1.18,0.42c-0.78,0-1.31-0.36-1.6-1.07c-0.15-0.38-0.23-0.89-0.23-1.51c0-0.66,0.08-1.19,0.23-1.59    C98.02,15.75,98.57,15.38,99.37,15.38z"/>
		<path class="st00" d="M94.38,13.48c-4.97,0-4.68,4.4-4.68,4.4v4.47h2.26v-4.19c0-0.69,0.09-1.2,0.26-1.53    c0.31-0.59,0.91-0.88,1.82-0.88c0.07,0,0.16,0,0.27,0.01c0.11,0.01,0.23,0.02,0.38,0.03v-2.3c-0.1-0.01-0.17-0.01-0.19-0.01    C94.46,13.49,94.42,13.48,94.38,13.48z"/>
		<path class="st00" d="M86.09,20.02c-0.09,0.14-0.2,0.25-0.31,0.34c-0.32,0.26-0.75,0.34-1.26,0.34c-0.48,0-0.86-0.07-1.2-0.29    c-0.56-0.35-0.88-0.93-0.91-1.79h6.24c0.01-0.74-0.02-1.31-0.08-1.7c-0.1-0.67-0.33-1.26-0.68-1.77c-0.39-0.58-0.88-1-1.48-1.27    c-0.6-0.27-1.27-0.4-2.01-0.4c-1.26,0-2.28,0.4-3.07,1.19c-0.79,0.79-1.18,1.93-1.18,3.42c0,1.59,0.44,2.73,1.31,3.43    c0.87,0.7,1.88,1.06,3.02,1.06c1.38,0,2.46-0.42,3.22-1.25c0.41-0.44,0.67-0.87,0.78-1.3H86.09z M83.06,15.82    c0.32-0.33,0.76-0.49,1.34-0.49c0.53,0,0.97,0.15,1.33,0.46c0.36,0.31,0.56,0.76,0.6,1.35h-3.86    C82.54,16.59,82.74,16.15,83.06,15.82z"/>
		<g>
			<path class="st00" d="M79.24,22.36h-2.06v-5.19c0-0.47-0.16-1.6-1.52-1.6c-0.91,0-1.56,0.65-1.56,1.6v5.19h-2.06v-5.19     c0-0.47-0.14-1.6-1.5-1.6c-0.92,0-1.56,0.65-1.56,1.6v5.19h-2.06v-5.14c0-2.14,1.42-3.76,3.63-3.76c1.09,0,1.98,0.46,2.56,1.2     c0.61-0.74,1.51-1.2,2.56-1.2c2.25,0,3.58,1.55,3.58,3.76V22.36z"/>
		</g>
		<path class="st00" d="M120.7,10.77c0,0-2.27-0.24-2.27,1.58l0,2.42c-0.25-0.4-0.58-0.72-0.98-0.95c-0.4-0.23-0.86-0.34-1.38-0.34    c-1.13,0-2.03,0.42-2.7,1.26c-0.67,0.84-1.01,2.05-1.01,3.51c0,1.27,0.34,2.31,1.03,3.12c0.68,0.81,2.03,1.16,3.22,1.16    c4.15,0,4.11-3.56,4.11-3.56L120.7,10.77z M117.99,19.99c-0.33,0.47-0.81,0.71-1.45,0.71c-0.64,0-1.11-0.24-1.42-0.71    c-0.31-0.48-0.47-1.17-0.47-1.96c0-0.73,0.15-1.35,0.46-1.84c0.31-0.49,0.79-0.74,1.44-0.74c0.43,0,0.81,0.14,1.13,0.41    c0.53,0.45,0.79,1.26,0.79,2.31C118.49,18.91,118.32,19.52,117.99,19.99z"/>
	</g>
	<g>
		<g>
			<path class="st11" d="M83.39,36.68c0,0.31-0.11,0.57-0.33,0.79c-0.22,0.22-0.49,0.33-0.8,0.33h-1.13v-7.84     c0-1.52,0.51-2.48,1.36-3.13c0.56-0.43,1.39-0.83,2.95-0.83c1.05,0,2.29,0.41,2.95,1.22c0.75,0.91,1.06,1.93,1.06,3.26     c0,1.38-0.33,2.49-0.99,3.34c-0.66,0.83-1.52,1.24-2.55,1.24c-0.55,0-1.04-0.1-1.46-0.29c-0.44-0.22-0.8-0.56-1.06-1.02V36.68z      M87.17,30.57c0-0.85-0.17-1.5-0.5-1.96c-0.33-0.46-0.81-0.69-1.43-0.69c-0.6,0-1.06,0.23-1.39,0.69     c-0.31,0.42-0.46,1.07-0.46,1.96c0,0.83,0.16,1.45,0.5,1.87c0.33,0.46,0.81,0.69,1.43,0.69c0.57,0,1.03-0.23,1.36-0.69     C87.01,31.98,87.17,31.36,87.17,30.57"/>
			<path class="st11" d="M104.41,34.33v-0.55c-0.39,0.61-0.92,0.99-1.58,1.14c-0.66,0.15-1.32,0.1-1.97-0.16     c-0.65-0.26-1.21-0.75-1.68-1.45c-0.47-0.71-0.7-1.64-0.7-2.8c0-1.35,0.31-2.45,0.93-3.29c0.62-0.84,1.61-1.22,2.98-1.26     c1.35-0.04,2.13,0.27,2.9,0.85c0.84,0.64,1.34,1.61,1.34,3.14v4.61c0,1.47-1.02,4.19-4.23,3.96c-1.99-0.14-3.1-0.96-3.71-2.81     h2.38c0.17,0.3,0.44,0.54,0.8,0.7c0.36,0.17,0.72,0.21,1.07,0.13c0.36-0.08,0.68-0.29,0.98-0.64     C104.2,35.56,104.37,35.03,104.41,34.33 M100.7,30.57c0,1.5,0.44,2.34,1.3,2.5c0.87,0.16,1.51-0.04,1.92-0.61     c0.2-0.24,0.34-0.62,0.42-1.13c0.09-0.51,0.09-1.02,0.02-1.52c-0.07-0.5-0.26-0.95-0.54-1.34c-0.28-0.39-0.69-0.59-1.24-0.59     c-0.74,0-1.24,0.27-1.5,0.82C100.83,29.26,100.7,29.88,100.7,30.57"/>
			<path class="st11" d="M96.55,26.59c-0.73-0.37-1.57-0.56-2.52-0.56c-1.45,0-2.48,0.38-3.07,1.14c-0.37,0.48-0.59,1.1-0.63,1.85     h2.17c0.05-0.33,0.16-0.59,0.32-0.79c0.22-0.26,0.6-0.39,1.14-0.39c0.48,0,0.84,0.07,1.09,0.2c0.25,0.13,0.37,0.38,0.37,0.73     c0,0.29-0.16,0.5-0.48,0.64c-0.18,0.08-0.48,0.14-0.9,0.2l-0.77,0.09c-0.87,0.11-1.54,0.3-1.99,0.55     c-0.82,0.47-1.23,1.24-1.23,2.29c0,0.81,0.25,1.44,0.77,1.89c0.51,0.44,1.16,0.63,1.94,0.67c4.91,0.22,4.85-2.59,4.9-3.17V28.7     C97.65,27.66,97.29,26.96,96.55,26.59 M95.41,31.48c-0.01,0.75-0.23,1.27-0.64,1.55c-0.41,0.28-0.87,0.43-1.36,0.43     c-0.31,0-0.57-0.09-0.79-0.26c-0.22-0.17-0.33-0.45-0.33-0.83c0-0.43,0.18-0.75,0.53-0.95c0.21-0.12,0.55-0.22,1.03-0.31     l0.51-0.1c0.26-0.05,0.46-0.1,0.6-0.16c0.15-0.05,0.29-0.13,0.44-0.22V31.48z"/>
			<path class="st11" d="M115.16,27.3c-0.72-0.91-1.82-1.36-3.3-1.36c-1.47,0-2.57,0.45-3.29,1.36c-0.72,0.91-1.09,1.98-1.09,3.21     c0,1.26,0.36,2.33,1.09,3.23c0.72,0.89,1.82,1.34,3.29,1.34c1.47,0,2.57-0.45,3.3-1.34c0.72-0.89,1.08-1.97,1.08-3.23     C116.24,29.27,115.88,28.2,115.16,27.3 M113.37,32.49c-0.35,0.47-0.85,0.7-1.51,0.7s-1.16-0.23-1.51-0.7     c-0.36-0.46-0.53-1.13-0.53-1.99c0-0.86,0.18-1.52,0.53-1.98c0.35-0.46,0.86-0.69,1.51-0.69s1.16,0.23,1.51,0.69     c0.35,0.46,0.53,1.12,0.53,1.98C113.89,31.37,113.72,32.03,113.37,32.49"/>
		</g>
	</g>
</g>
</svg>