<svg xmlns="http://www.w3.org/2000/svg" xmlns:xlink="http://www.w3.org/1999/xlink" version="1.1" id="Capa_1" class="myIcon" x="0px" y="0px" viewBox="0 0 150 50" style="enable-background:new 0 0 150 50;" xml:space="preserve">
<style type="text/css">
	.st000{fill:#016FD0;}
	.st111{fill:#FFFFFF;}
</style>
<path class="st000" d="M117.79,46.5H32.21c-4.54,0-8.22-3.68-8.22-8.22V11.73c0-4.54,3.68-8.22,8.22-8.22h85.57  c4.54,0,8.22,3.68,8.22,8.22v26.55C126.01,42.81,122.33,46.5,117.79,46.5z"/>
<g>
	<path id="path3076_2_" class="st111" d="M86.02,17.64c-0.03-0.03-0.07-0.07-0.1-0.16c-0.05-0.11-0.11-0.32-0.11-0.67   c0-0.5,0.16-0.74,0.25-0.83c0.07-0.07,0.18-0.13,0.37-0.13h1.75l-0.85,1.98h-0.55C86.27,17.83,86.08,17.7,86.02,17.64z    M37.66,10.46l-5.44,12.59h6.14l0.75-1.89h2.21l0.75,1.89c12.57,0,17.96,0,30.59,0v-1.79l1.51,1.79h7.17l0,0h0.91v-1.31   c0.37,0.32,0.78,0.59,1.23,0.8c0.5,0.23,1.04,0.39,1.61,0.46l-0.02,0.05h6.14l0.75-1.89h2.21l0.75,1.89h6.2l0,0h1.82v-2.3l1.49,2.3   h5.36V10.45h-5.54v2.15l-1.39-2.15H97.4v3.98l-1.72-3.97c-0.42,0-9.75,0-9.16,0c-1.05,0-2.03,0.18-2.89,0.56   c-0.51,0.23-0.98,0.52-1.39,0.87v-1.42c-7.91,0-18.28,0-29.14,0l-1.03,2.94l-1.05-2.93l-6.47-0.02v3.99l-1.72-3.98H37.66z    M50.29,26.96v12.59c4.68,0,8.4,0,13.35,0l1.39-1.86l1.43,1.86c0.82,0-2.99,0,8.07,0v-2.98c0.51-0.04,2.37,0.23,4.06-0.83v3.8h5.54   v-1.79l1.51,1.79c0.94,0,28.12,0,26.67,0c2.86,0,4.68-1.96,4.68-4.58c0-1.27-0.45-2.46-1.43-3.28l2.22-4.73   c-0.46,0-53.48,0-51.16,0l-1.52,1.95l-1.52-1.95C60.5,26.96,53.39,26.96,50.29,26.96z"/>
	<g>
		<path id="path3046_2_" class="st000" d="M38.7,12.04l-4.07,9.43h2.65l0.75-1.89h4.37l0.75,1.89h2.71l-4.07-9.43H38.7L38.7,12.04z     M40.21,14.23l1.33,3.3h-2.67L40.21,14.23z"/>
		<path id="path3048_2_" class="st000" d="M46.14,21.47v-9.43l3.77,0.01l2.19,6.08l2.14-6.09h3.74v9.43h-2.37v-6.95l-2.51,6.95h-2.08    l-2.52-6.95v6.95H46.14z"/>
		<path id="path3050_2_" class="st000" d="M59.6,21.47v-9.43h7.73v2.11H62v1.61h5.21v1.99H62v1.68h5.33v2.05H59.6z"/>
		<path id="path3052_2_" class="st000" d="M68.7,12.04v9.43h2.37v-3.35h1l2.84,3.35h2.89l-3.12-3.47c1.28-0.11,2.6-1.2,2.6-2.9    c0-1.98-1.56-3.06-3.31-3.06H68.7L68.7,12.04z M71.07,14.15h2.71c0.65,0,1.12,0.51,1.12,0.99c0,0.63-0.61,0.99-1.09,0.99h-2.74    V14.15L71.07,14.15z"/>
		<path id="path3054_2_" class="st000" d="M80.67,21.47h-2.42v-9.43h2.42V21.47z"/>
		<path id="path3056_2_" class="st000" d="M86.4,21.47h-0.52c-2.53,0-4.06-1.98-4.06-4.68c0-2.76,1.52-4.75,4.71-4.75h2.62v2.23h-2.71    c-1.29,0-2.21,1.01-2.21,2.54c0,1.83,1.05,2.59,2.56,2.59h0.62L86.4,21.47z"/>
		<path id="path3058_2_" class="st000" d="M91.56,12.04l-4.07,9.43h2.65l0.75-1.89h4.37L96,21.47h2.71l-4.07-9.43H91.56L91.56,12.04z     M93.06,14.23l1.33,3.3h-2.67L93.06,14.23L93.06,14.23z"/>
		<path id="path3060_2_" class="st000" d="M98.99,21.47v-9.43H102l3.84,5.93v-5.93h2.37v9.43h-2.91l-3.94-6.08v6.08H98.99z"/>
		<path id="path3062_2_" class="st000" d="M51.88,37.97v-9.43h7.73v2.11h-5.33v1.61h5.21v1.99h-5.21v1.68h5.33v2.05H51.88z"/>
		<path id="path3064_2_" class="st000" d="M89.74,37.97v-9.43h7.73v2.11h-5.33v1.61h5.19v1.99h-5.19v1.68h5.33v2.05H89.74z"/>
		<path id="path3066_2_" class="st000" d="M59.9,37.97l3.76-4.66l-3.85-4.77h2.98l2.29,2.95l2.3-2.95h2.87l-3.8,4.72l3.77,4.72h-2.98    l-2.23-2.9l-2.17,2.9H59.9z"/>
		<path id="path3068_2_" class="st000" d="M70.51,28.54v9.43h2.43v-2.98h2.49c2.11,0,3.71-1.11,3.71-3.28c0-1.79-1.25-3.17-3.4-3.17    H70.51L70.51,28.54z M72.94,30.67h2.63c0.68,0,1.17,0.42,1.17,1.09c0,0.63-0.48,1.09-1.18,1.09h-2.62V30.67L72.94,30.67z"/>
		<path id="path3072_2_" class="st000" d="M80.17,28.54v9.43h2.37v-3.35h1l2.84,3.35h2.89l-3.12-3.47c1.28-0.11,2.6-1.2,2.6-2.9    c0-1.98-1.56-3.06-3.31-3.06H80.17L80.17,28.54z M82.54,30.65h2.71c0.65,0,1.12,0.51,1.12,0.99c0,0.63-0.61,0.99-1.09,0.99h-2.74    V30.65z"/>
		<path id="path3074_2_" class="st000" d="M98.57,37.97v-2.05h4.74c0.7,0,1-0.38,1-0.79c0-0.4-0.3-0.8-1-0.8h-2.14    c-1.86,0-2.9-1.13-2.9-2.82c0-1.51,0.95-2.97,3.72-2.97h4.61l-1,2.12h-3.99c-0.76,0-1,0.4-1,0.78c0,0.39,0.29,0.82,0.87,0.82h2.24    c2.08,0,2.98,1.17,2.98,2.71c0,1.65-1,3-3.09,3H98.57z"/>
		<path class="st000" d="M107.26,37.97v-2.05H112c0.7,0,1-0.38,1-0.79c0-0.4-0.3-0.8-1-0.8h-2.14c-1.86,0-2.9-1.13-2.9-2.82    c0-1.51,0.95-2.97,3.72-2.97h4.61l-1,2.12h-3.99c-0.76,0-1,0.4-1,0.78c0,0.39,0.29,0.82,0.87,0.82h2.24    c2.08,0,2.98,1.17,2.98,2.71c0,1.65-1,3-3.09,3H107.26z"/>
	</g>
</g>
</svg>