<svg xmlns="http://www.w3.org/2000/svg" xmlns:xlink="http://www.w3.org/1999/xlink" version="1.1" class="myIcon" id="Capa_1" x="0px" y="0px" viewBox="0 0 150 50" style="enable-background:new 0 0 150 50;" xml:space="preserve">
<style type="text/css">
	.st0000{fill-rule:evenodd;clip-rule:evenodd;fill:#009DE2;}
	.st1111{fill-rule:evenodd;clip-rule:evenodd;fill:#113984;}
	.st2222{fill-rule:evenodd;clip-rule:evenodd;fill:#172C70;}
</style>
<g>
	<path class="st0000" d="M30.11,17.59h7.53c4.04,0,5.56,2.05,5.33,5.05c-0.39,4.96-3.39,7.7-7.37,7.7h-2.01   c-0.55,0-0.91,0.36-1.06,1.34l-0.86,5.69c-0.06,0.37-0.25,0.59-0.54,0.61H26.4c-0.44,0-0.6-0.34-0.49-1.08l2.88-18.24   C28.91,17.94,29.31,17.59,30.11,17.59z"/>
	<path class="st1111" d="M62.78,17.25c2.54,0,4.88,1.38,4.56,4.81c-0.38,4.07-2.57,6.34-6.02,6.35h-3.01c-0.43,0-0.64,0.35-0.76,1.08   l-0.58,3.7c-0.09,0.56-0.37,0.84-0.8,0.84h-2.8c-0.45,0-0.6-0.29-0.5-0.92l2.32-14.85c0.11-0.73,0.39-1,0.89-1H62.78L62.78,17.25z    M58.21,25.2l2.28,0c1.43-0.05,2.38-1.04,2.47-2.83c0.06-1.1-0.68-1.89-1.87-1.88l-2.15,0.01L58.21,25.2L58.21,25.2z M74.96,32.89   c0.26-0.23,0.52-0.35,0.48-0.07l-0.09,0.69c-0.05,0.36,0.1,0.55,0.43,0.55h2.49c0.42,0,0.62-0.17,0.73-0.82l1.53-9.63   c0.08-0.48-0.04-0.72-0.41-0.72h-2.74c-0.25,0-0.37,0.14-0.43,0.52L76.85,24c-0.05,0.31-0.19,0.36-0.33,0.05   c-0.46-1.1-1.65-1.59-3.31-1.56c-3.84,0.08-6.43,2.99-6.71,6.73c-0.21,2.89,1.86,5.16,4.59,5.16   C73.07,34.39,73.96,33.8,74.96,32.89L74.96,32.89z M72.87,31.41c-1.65,0-2.81-1.32-2.56-2.94c0.24-1.62,1.79-2.93,3.44-2.93   s2.81,1.32,2.56,2.93C76.07,30.09,74.53,31.41,72.87,31.41L72.87,31.41z M85.4,22.86h-2.52c-0.52,0-0.73,0.38-0.57,0.87l3.13,9.18   l-3.09,4.37c-0.26,0.36-0.06,0.7,0.3,0.7h2.84c0.42,0,0.63-0.11,0.84-0.41l9.64-13.83c0.3-0.43,0.16-0.87-0.33-0.87l-2.68,0   c-0.46,0-0.65,0.18-0.91,0.57l-4.02,5.83l-1.79-5.84C86.15,23.05,85.89,22.86,85.4,22.86z"/>
	<path class="st0000" d="M106.03,17.25c2.54,0,4.88,1.38,4.56,4.81c-0.38,4.07-2.57,6.34-6.02,6.35h-3.01c-0.43,0-0.64,0.35-0.76,1.08   l-0.58,3.7c-0.09,0.56-0.37,0.84-0.8,0.84h-2.8c-0.45,0-0.6-0.29-0.5-0.92l2.32-14.85c0.11-0.73,0.39-1,0.89-1H106.03L106.03,17.25   z M101.46,25.2l2.28,0c1.43-0.05,2.38-1.04,2.47-2.83c0.06-1.1-0.68-1.89-1.87-1.88l-2.15,0.01L101.46,25.2L101.46,25.2z    M118.21,32.89c0.26-0.23,0.52-0.35,0.48-0.07l-0.09,0.69c-0.05,0.36,0.1,0.55,0.43,0.55h2.49c0.42,0,0.62-0.17,0.73-0.82   l1.53-9.63c0.08-0.48-0.04-0.72-0.41-0.72h-2.74c-0.25,0-0.37,0.14-0.43,0.52L120.1,24c-0.05,0.31-0.19,0.36-0.33,0.05   c-0.46-1.1-1.65-1.59-3.31-1.56c-3.84,0.08-6.43,2.99-6.71,6.73c-0.21,2.89,1.86,5.16,4.59,5.16   C116.32,34.39,117.21,33.8,118.21,32.89L118.21,32.89z M116.12,31.41c-1.65,0-2.81-1.32-2.56-2.94c0.24-1.62,1.78-2.93,3.44-2.93   c1.65,0,2.81,1.32,2.56,2.93C119.32,30.09,117.78,31.41,116.12,31.41L116.12,31.41z M127.61,34.08h-2.87   c-0.23,0-0.39-0.18-0.35-0.4l2.53-16c0.03-0.22,0.25-0.4,0.48-0.4h2.87c0.23,0,0.39,0.18,0.35,0.4l-2.53,16   C128.05,33.9,127.84,34.08,127.61,34.08z"/>
	<path class="st1111" d="M25.4,11.31h7.53c2.12,0,4.64,0.07,6.32,1.55c1.12,0.99,1.71,2.57,1.58,4.27c-0.46,5.75-3.9,8.97-8.52,8.97   h-3.72c-0.63,0-1.05,0.42-1.23,1.55l-1.04,6.6c-0.07,0.43-0.25,0.68-0.59,0.71h-4.64c-0.51,0-0.7-0.39-0.56-1.25l3.34-21.16   C24.02,11.72,24.48,11.31,25.4,11.31z"/>
	<path class="st2222" d="M27.48,27l1.32-8.33c0.12-0.73,0.52-1.08,1.31-1.08h7.53c1.25,0,2.25,0.19,3.04,0.55   c-0.76,5.12-4.07,7.96-8.4,7.96h-3.72C28.07,26.11,27.7,26.36,27.48,27z"/>
</g>
</svg>