<svg width="16" height="17" viewBox="0 0 16 17" fill="none" xmlns="http://www.w3.org/2000/svg">
<path d="M3.04517 8.15596C3.04517 8.0607 3.06104 7.97496 3.0928 7.89875C3.1309 7.81619 3.18489 7.73997 3.25475 7.67011L10.8759 0.420509C11.0029 0.29349 11.1585 0.22998 11.3427 0.22998C11.4633 0.22998 11.5713 0.25856 11.6666 0.315718C11.7682 0.372877 11.8476 0.452264 11.9047 0.553879C11.9682 0.649143 12 0.760284 12 0.887303C12 1.05878 11.9365 1.2112 11.8095 1.34457L4.6456 8.15596L11.8095 14.9674C11.9365 15.1007 12 15.2531 12 15.4246C12 15.5516 11.9682 15.6628 11.9047 15.758C11.8476 15.8597 11.7682 15.939 11.6666 15.9962C11.5713 16.0534 11.4633 16.0819 11.3427 16.0819C11.1585 16.0819 11.0029 16.0153 10.8759 15.8819L3.25475 8.64181C3.18489 8.57195 3.1309 8.49891 3.0928 8.4227C3.06104 8.34014 3.04517 8.25123 3.04517 8.15596Z" fill="black"/>
</svg>
