<?xml version="1.0" encoding="UTF-8"?>
<svg width="16" height="16" fill="none" version="1.1" viewBox="0 0 16 16" xmlns="http://www.w3.org/2000/svg">
 <path d="m3.7559 7.6322c0 0.0877 0.0175 0.16956 0.0526 0.24557 0.0351 0.07016 0.0848 0.1374 0.1491 0.20172l7.0075 6.6655c0.11694 0.1228 0.26311 0.1841 0.43852 0.1841 0.10524 0 0.20464-0.0263 0.29819-0.0789s0.16664-0.1257 0.21926-0.2192c0.05262-0.0877 0.07893-0.1901 0.07893-0.307 0-0.1579-0.05555-0.2982-0.16664-0.421l-6.5953-6.2708 6.5953-6.2708c0.11109-0.12279 0.16664-0.26311 0.16664-0.42098 0-0.11694-0.02631-0.21926-0.07893-0.30696-0.05262-0.09355-0.12571-0.16664-0.21926-0.21926-0.09355-0.052622-0.19295-0.078933-0.29819-0.078933-0.17541 0-0.32158 0.058469-0.43852 0.17541l-7.0075 6.6742c-0.0643 0.06432-0.114 0.13448-0.1491 0.21049-0.0351 0.07016-0.0526 0.14909-0.0526 0.2368z" fill="#000"/>
</svg>
