<svg width="16" height="16" viewBox="0 0 16 16" fill="none" xmlns="http://www.w3.org/2000/svg">
<path d="M1.18452 10.9719L7.84491 3.96009C7.97964 3.81364 8.1378 3.74042 8.3194 3.74042C8.40726 3.74042 8.4922 3.76092 8.57421 3.80193C8.65622 3.84293 8.72945 3.89858 8.79388 3.96887L15.4543 10.9807C15.5773 11.0979 15.6388 11.2385 15.6388 11.4025C15.6388 11.5197 15.6095 11.6222 15.5509 11.71C15.4982 11.7979 15.4279 11.8682 15.34 11.9209C15.2522 11.9736 15.1497 12 15.0325 12C14.8568 12 14.7132 11.9444 14.602 11.8331L7.93278 4.82119H8.70601L2.02805 11.8331C1.92847 11.9444 1.78495 12 1.5975 12C1.4862 12 1.38369 11.9736 1.28996 11.9209C1.2021 11.8682 1.1318 11.7979 1.07908 11.71C1.02636 11.6222 1 11.5197 1 11.4025C1 11.3205 1.01464 11.2414 1.04393 11.1653C1.07908 11.0891 1.12594 11.0247 1.18452 10.9719Z" fill="black"/>
</svg>
