<svg width="16" height="16" viewBox="0 0 16 16" fill="none" xmlns="http://www.w3.org/2000/svg">
<path d="M5.63689 11.3253C5.20461 11.3253 4.8684 11.2028 4.62824 10.9578C4.39289 10.7129 4.27522 10.3839 4.27522 9.97082V8.50828H1.37896C1.1292 8.50828 0.920269 8.44104 0.752161 8.30655C0.584054 8.16726 0.5 7.98235 0.5 7.7518C0.5 7.61251 0.533622 7.48523 0.600865 7.36995C0.668108 7.25468 0.771374 7.1346 0.910663 7.00972L7.16427 1.49099C7.32757 1.3469 7.47166 1.24123 7.59654 1.17399C7.72622 1.10194 7.86071 1.06592 8 1.06592C8.13929 1.06592 8.27137 1.10194 8.39625 1.17399C8.52594 1.24123 8.67243 1.3469 8.83574 1.49099L15.0893 7.00972C15.2238 7.125 15.3247 7.24267 15.3919 7.36275C15.464 7.48283 15.5 7.61251 15.5 7.7518C15.5 7.98235 15.4135 8.16726 15.2406 8.30655C15.0725 8.44104 14.8636 8.50828 14.6138 8.50828H11.7176V9.97082C11.7176 10.3839 11.5999 10.7129 11.3646 10.9578C11.1292 11.2028 10.7954 11.3253 10.3631 11.3253H5.63689ZM5.70893 10.4896H10.2839C10.4328 10.4896 10.5552 10.4415 10.6513 10.3455C10.7522 10.2446 10.8026 10.1197 10.8026 9.97082V7.89589C10.8026 7.81424 10.8194 7.7566 10.853 7.72298C10.8866 7.68936 10.9443 7.67255 11.0259 7.67255H14.2176C14.2992 7.67255 14.3401 7.64373 14.3401 7.58609C14.3401 7.54286 14.3184 7.50204 14.2752 7.46361L8.24496 2.19704C8.14409 2.10578 8.06244 2.06015 8 2.06015C7.93756 2.06015 7.85351 2.10578 7.74784 2.19704L1.71758 7.46361C1.67915 7.50204 1.65994 7.54286 1.65994 7.58609C1.65994 7.64373 1.69837 7.67255 1.77522 7.67255H4.96686C5.04851 7.67255 5.10615 7.68936 5.13977 7.72298C5.17339 7.7566 5.1902 7.81424 5.1902 7.89589V9.97082C5.1902 10.1245 5.23823 10.2494 5.33429 10.3455C5.43036 10.4415 5.55524 10.4896 5.70893 10.4896ZM5.37752 15.6192C5.01729 15.6192 4.73391 15.5208 4.52738 15.3238C4.32565 15.1269 4.22478 14.8483 4.22478 14.4881V13.5515C4.22478 13.1865 4.32565 12.9007 4.52738 12.6942C4.73391 12.4828 5.01729 12.3772 5.37752 12.3772H10.572C10.9371 12.3772 11.2205 12.4828 11.4222 12.6942C11.6239 12.9007 11.7248 13.1865 11.7248 13.5515V14.4881C11.7248 14.8531 11.6239 15.1317 11.4222 15.3238C11.2205 15.5208 10.9371 15.6192 10.572 15.6192H5.37752ZM5.48559 14.8267H10.464C10.7474 14.8267 10.889 14.6922 10.889 14.4233V13.6164C10.889 13.4819 10.8506 13.3762 10.7738 13.2993C10.7017 13.2177 10.5985 13.1769 10.464 13.1769H5.48559C5.3511 13.1769 5.24784 13.2177 5.17579 13.2993C5.10375 13.3762 5.06772 13.4819 5.06772 13.6164V14.4233C5.06772 14.6922 5.20701 14.8267 5.48559 14.8267Z" fill="#0071BC"/>
</svg>
