<svg width="16" height="16" viewBox="0 0 16 16" fill="none" xmlns="http://www.w3.org/2000/svg">
<path d="M8.53189 3.61279C8.12916 3.61279 7.73546 3.73222 7.40059 3.95597C7.06573 4.17972 6.80473 4.49774 6.65061 4.86983C6.49649 5.24191 6.45616 5.65134 6.53473 6.04634C6.6133 6.44134 6.80724 6.80417 7.09202 7.08895C7.3768 7.37373 7.73963 7.56767 8.13463 7.64624C8.52964 7.72481 8.93907 7.68449 9.31115 7.53037C9.68323 7.37624 10.0013 7.11525 10.225 6.78038C10.4488 6.44552 10.5682 6.05182 10.5682 5.64908C10.5676 5.10921 10.3528 4.59163 9.97109 4.20989C9.58934 3.82814 9.07176 3.61341 8.53189 3.61279ZM8.53189 6.66722C8.33053 6.66722 8.13368 6.60751 7.96624 6.49564C7.79881 6.38376 7.66831 6.22475 7.59125 6.03871C7.51419 5.85267 7.49403 5.64795 7.53331 5.45045C7.5726 5.25295 7.66957 5.07153 7.81196 4.92914C7.95435 4.78675 8.13576 4.68979 8.33326 4.6505C8.53077 4.61121 8.73548 4.63138 8.92152 4.70844C9.10756 4.7855 9.26658 4.916 9.37845 5.08343C9.49033 5.25086 9.55004 5.44771 9.55004 5.64908C9.54973 5.91901 9.44236 6.1778 9.25149 6.36867C9.06062 6.55954 8.80183 6.66691 8.53189 6.66722Z" fill="black"/>
<path d="M12.4461 1.73308C11.4786 0.765855 10.1872 0.191285 8.82098 0.120261C7.4548 0.0492369 6.11072 0.486794 5.04817 1.34848C3.98563 2.21017 3.27993 3.43491 3.06728 4.78631C2.85463 6.13772 3.1501 7.51999 3.89668 8.66635L7.74358 14.572C7.82918 14.7034 7.94623 14.8114 8.08412 14.8861C8.222 14.9609 8.37636 15 8.53319 15C8.69003 15 8.84439 14.9609 8.98227 14.8861C9.12015 14.8114 9.23721 14.7034 9.32281 14.572L13.1698 8.66635C13.8626 7.60294 14.1687 6.33372 14.0369 5.07143C13.9052 3.80914 13.3435 2.6305 12.4461 1.73308ZM12.3168 8.11061L8.53321 13.9188L4.74963 8.11061C3.59149 6.3327 3.83988 3.95343 5.34025 2.453C5.75955 2.03369 6.25733 1.70107 6.80519 1.47414C7.35303 1.24721 7.94022 1.13041 8.53321 1.13041C9.1262 1.13041 9.71338 1.24721 10.2612 1.47414C10.8091 1.70107 11.3069 2.03369 11.7262 2.453C13.2265 3.95343 13.4749 6.3327 12.3168 8.11061Z" fill="black"/>
</svg>
