<svg width="16" height="16" viewBox="0 0 16 16" fill="none" xmlns="http://www.w3.org/2000/svg">
<path fill-rule="evenodd" clip-rule="evenodd" d="M12.389 1.62771C11.4274 0.666328 10.1438 0.0952296 8.78582 0.0246347C7.42788 -0.0459602 6.09193 0.388954 5.0358 1.24544C3.97967 2.10192 3.27823 3.31926 3.06687 4.6625C2.85551 6.00574 3.1492 7.37966 3.89126 8.5191L7.71492 14.3891C7.80001 14.5197 7.91635 14.627 8.0534 14.7013C8.19045 14.7756 8.34388 14.8145 8.49977 14.8145C8.65565 14.8145 8.80908 14.7756 8.94613 14.7013C9.08318 14.627 9.19952 14.5197 9.28461 14.3891L13.1084 8.5191C13.7969 7.4621 14.1012 6.20055 13.9703 4.94589C13.8393 3.69123 13.281 2.51971 12.389 1.62771ZM6.51055 5.89532C6.4376 5.50876 6.47886 5.10915 6.62951 4.74545C6.7827 4.37561 7.04212 4.05951 7.37496 3.83711C7.70781 3.61471 8.09912 3.49601 8.49943 3.49601C9.03604 3.49662 9.55049 3.71006 9.92993 4.0895C10.162 4.32158 10.332 4.60416 10.4292 4.91144C10.5199 5.14439 10.5679 5.39425 10.5682 5.64908C10.5682 6.05182 10.4488 6.44552 10.225 6.78038C10.0013 7.11525 9.68323 7.37624 9.31115 7.53037C8.93907 7.68449 8.52964 7.72481 8.13463 7.64624C7.73963 7.56767 7.3768 7.37373 7.09202 7.08895C6.80724 6.80417 6.6133 6.44134 6.53473 6.04634C6.52476 5.9962 6.5167 5.94582 6.51055 5.89532Z" fill="black"/>
</svg>
