<svg width="16" height="16" viewBox="0 0 16 16" fill="none" xmlns="http://www.w3.org/2000/svg">
<path fill-rule="evenodd" clip-rule="evenodd" d="M8.78582 1.00742C10.1438 1.07802 11.4274 1.64912 12.389 2.6105C13.281 3.5025 13.8393 4.67401 13.9703 5.92868C14.1012 7.18334 13.7969 8.44489 13.1084 9.50188L9.28461 15.3719C9.19952 15.5025 9.08318 15.6098 8.94613 15.6841C8.80908 15.7584 8.65565 15.7973 8.49977 15.7973C8.34388 15.7973 8.19045 15.7584 8.0534 15.6841C7.91635 15.6098 7.80001 15.5025 7.71492 15.3719L3.89126 9.50188C3.1492 8.36245 2.85551 6.98853 3.06687 5.64528C3.27823 4.30204 3.97967 3.08471 5.0358 2.22822C6.09193 1.37174 7.42788 0.936828 8.78582 1.00742ZM7.3751 4.81995C7.70795 4.59755 8.09926 4.47885 8.49957 4.47885C9.03618 4.47946 9.55063 4.6929 9.93007 5.07233C10.3095 5.45177 10.5229 5.96623 10.5236 6.50283C10.5236 6.90314 10.4049 7.29446 10.1825 7.6273C9.96006 7.96014 9.64395 8.21956 9.27412 8.37275C8.90428 8.52594 8.49732 8.56602 8.10471 8.48793C7.7121 8.40983 7.35146 8.21707 7.0684 7.93401C6.78534 7.65095 6.59257 7.29031 6.51447 6.89769C6.43638 6.50508 6.47646 6.09812 6.62965 5.72829C6.78284 5.35845 7.04226 5.04235 7.3751 4.81995ZM7.9103 5.71536C7.87574 5.73329 7.8527 5.74603 7.84818 5.74899C7.84325 5.75222 7.8604 5.74379 7.90875 5.71773C7.90927 5.71694 7.90978 5.71616 7.9103 5.71536ZM8.88684 5.56787C8.92839 5.58508 8.91446 5.58361 8.86913 5.57288C8.87508 5.57115 8.88098 5.56948 8.88684 5.56787Z" fill="#0071E3"/>
</svg>
