<svg width="17" height="16" viewBox="0 0 17 16" fill="none" xmlns="http://www.w3.org/2000/svg">
<path d="M5.08783 9.77681C4.97124 9.81081 4.86194 9.79867 4.75993 9.74037C4.65792 9.68208 4.59234 9.58978 4.56319 9.46348L4.01669 7.21189L1.78696 7.86041C1.67038 7.89927 1.56107 7.88955 1.45906 7.83126C1.35705 7.77297 1.29147 7.68553 1.26232 7.56894C1.22832 7.45235 1.23803 7.34548 1.29147 7.24833C1.34976 7.14631 1.43963 7.0783 1.56107 7.0443L3.95111 6.37392C4.06284 6.34478 4.15999 6.33263 4.24258 6.33749C4.32516 6.33749 4.40531 6.36178 4.48304 6.41036C4.61905 6.48808 4.71621 6.63382 4.7745 6.84756L5.38658 9.25945C5.42059 9.3809 5.40844 9.49263 5.35015 9.59464C5.29186 9.6918 5.20442 9.75252 5.08783 9.77681ZM2.88725 14.0978C2.50349 14.0978 2.17073 14.0128 1.88898 13.8428C1.60722 13.6728 1.38862 13.442 1.23317 13.1505C1.07772 12.8639 1 12.5482 1 12.2033C1 12.0478 1.01943 11.8924 1.05829 11.7369C1.10201 11.5766 1.16516 11.4212 1.24775 11.2706L3.91467 6.51966L4.67978 6.97143L2.03471 11.7005C1.99099 11.7831 1.95941 11.8681 1.93998 11.9555C1.92055 12.043 1.91084 12.1255 1.91084 12.2033C1.91084 12.4705 2.0007 12.7061 2.18044 12.9101C2.36018 13.1141 2.59821 13.2161 2.89454 13.2161H6.98966C7.12082 13.2161 7.23012 13.2574 7.31756 13.34C7.405 13.4274 7.44872 13.5343 7.44872 13.6606C7.44872 13.7869 7.405 13.8914 7.31756 13.9739C7.23012 14.0565 7.12082 14.0978 6.98966 14.0978H2.88725ZM12.1268 6.47594L9.39426 1.58657C9.29711 1.41655 9.17323 1.2951 9.02264 1.22224C8.87205 1.14451 8.71174 1.10565 8.54172 1.10565C8.3717 1.10565 8.20896 1.14451 8.05351 1.22224C7.90292 1.2951 7.77905 1.41655 7.68189 1.58657L5.58333 5.3465C5.52017 5.45823 5.43031 5.5311 5.31372 5.5651C5.19713 5.59911 5.08297 5.58453 4.97124 5.52138C4.86437 5.45823 4.79393 5.37079 4.75993 5.25906C4.72593 5.14733 4.74536 5.02832 4.81822 4.90201L6.9095 1.16394C7.08924 0.853045 7.32727 0.617443 7.6236 0.457135C7.91992 0.296828 8.22596 0.216675 8.54172 0.216675C8.86233 0.216675 9.16838 0.296828 9.45984 0.457135C9.75617 0.612585 9.99177 0.848188 10.1667 1.16394L12.8919 6.03145L12.1268 6.47594ZM12.1632 6.59981L9.76588 5.93672C9.64444 5.90272 9.55457 5.83471 9.49628 5.7327C9.44284 5.63068 9.4307 5.52381 9.45984 5.41208C9.4987 5.2955 9.56671 5.21048 9.66387 5.15705C9.76588 5.09875 9.87518 5.08418 9.99177 5.11333L12.2288 5.76913L12.7753 3.51026C12.7996 3.38881 12.8627 3.30137 12.9647 3.24794C13.0716 3.18964 13.1809 3.17507 13.2926 3.20422C13.4092 3.2285 13.4967 3.29166 13.555 3.39367C13.6133 3.49083 13.6254 3.60013 13.5914 3.72157L12.9793 6.13346C12.921 6.33749 12.8239 6.48322 12.6878 6.57066C12.6053 6.61924 12.5227 6.64353 12.4401 6.64353C12.3624 6.64353 12.2701 6.62896 12.1632 6.59981ZM8.83319 14.0978V13.2161H14.1816C14.4731 13.2161 14.7111 13.1141 14.8957 12.9101C15.0803 12.7061 15.1726 12.4705 15.1726 12.2033C15.1726 12.1255 15.1605 12.043 15.1362 11.9555C15.1167 11.8681 15.0852 11.7831 15.0414 11.7005L13.0012 8.06444C12.938 7.95271 12.9234 7.83855 12.9575 7.72196C12.9963 7.60052 13.0692 7.50822 13.1761 7.44507C13.2829 7.38192 13.3947 7.36491 13.5112 7.39406C13.6278 7.42321 13.7177 7.49607 13.7808 7.61266L15.8284 11.2706C15.9158 11.426 15.979 11.5815 16.0179 11.7369C16.0567 11.8924 16.0762 12.0478 16.0762 12.2033C16.0762 12.5482 15.9984 12.8639 15.843 13.1505C15.6875 13.442 15.4689 13.6728 15.1872 13.8428C14.9054 14.0128 14.5751 14.0978 14.1962 14.0978H8.83319ZM10.4654 15.8685L8.68745 14.127C8.53686 13.9812 8.46157 13.8258 8.46157 13.6606C8.46157 13.4954 8.53686 13.3376 8.68745 13.187L10.4654 11.4527C10.5528 11.3604 10.6549 11.3167 10.7714 11.3216C10.888 11.3216 10.9876 11.3653 11.0702 11.4527C11.1528 11.5353 11.1941 11.6349 11.1941 11.7515C11.1941 11.8681 11.1504 11.9701 11.0629 12.0575L9.38698 13.6606L11.0629 15.2564C11.1504 15.3438 11.1941 15.4458 11.1941 15.5624C11.1941 15.6839 11.1528 15.7859 11.0702 15.8685C10.9876 15.9559 10.888 15.9996 10.7714 15.9996C10.6549 16.0045 10.5528 15.9608 10.4654 15.8685Z" fill="#0071BC"/>
</svg>
