<svg width="16" height="16" viewBox="0 0 16 16" fill="none" xmlns="http://www.w3.org/2000/svg">
<path d="M3.47395 15.4417C2.7211 15.4417 2.15389 15.2533 1.77232 14.8764C1.39074 14.5046 1.19995 13.9495 1.19995 13.211V5.21275C1.19995 4.47429 1.39074 3.91917 1.77232 3.54739C2.15389 3.17052 2.7211 2.98209 3.47395 2.98209H12.3843C13.132 2.98209 13.6966 3.17052 14.0782 3.54739C14.4649 3.92426 14.6583 4.47938 14.6583 5.21275V13.211C14.6583 13.9495 14.4727 14.5046 14.1014 14.8764C13.7353 15.2533 13.2119 15.4417 12.5312 15.4417H3.47395ZM3.49715 14.5021H12.508C12.8638 14.5021 13.1526 14.39 13.3743 14.1659C13.5961 13.9419 13.7069 13.6083 13.7069 13.1652V5.25858C13.7069 4.8206 13.5883 4.48956 13.3511 4.26548C13.1191 4.0363 12.7891 3.92171 12.3611 3.92171H3.49715C3.05885 3.92171 2.72368 4.0363 2.49164 4.26548C2.26476 4.48956 2.15132 4.8206 2.15132 5.25858V13.1652C2.15132 13.6083 2.26476 13.9419 2.49164 14.1659C2.72368 14.39 3.05885 14.5021 3.49715 14.5021ZM5.02861 3.28002C5.02861 2.74018 5.15495 2.25381 5.40761 1.82092C5.66544 1.38803 6.0135 1.04427 6.4518 0.789626C6.89009 0.529892 7.38253 0.400024 7.92912 0.400024C8.4757 0.400024 8.96814 0.529892 9.40644 0.789626C9.84474 1.04427 10.1902 1.38803 10.4429 1.82092C10.7007 2.25381 10.8296 2.74018 10.8296 3.28002H9.87826C9.87826 2.89806 9.79317 2.55938 9.62301 2.264C9.458 1.96352 9.22854 1.72671 8.93463 1.55355C8.64071 1.38039 8.30554 1.29382 7.92912 1.29382C7.5527 1.29382 7.21753 1.38039 6.92361 1.55355C6.62969 1.72671 6.39765 1.96352 6.22749 2.264C6.06248 2.55938 5.97998 2.89806 5.97998 3.28002H5.02861Z" fill="black"/>
</svg>
