<?xml version="1.0" encoding="UTF-8"?>
<svg width="22" height="22" version="1.1" viewBox="0 0 22 22" xml:space="preserve" xmlns="http://www.w3.org/2000/svg"><path d="m2.274 15.042c-0.75284 0-1.32-0.1885-1.7016-0.5653-0.38158-0.3718-0.57237-0.9269-0.57237-1.6654v-7.9983c0-0.73846 0.19079-1.2936 0.57237-1.6654 0.38158-0.37687 0.94878-0.56531 1.7016-0.56531h8.9103c0.7477 0 1.3124 0.18844 1.6939 0.56531 0.3868 0.37687 0.5801 0.93198 0.5801 1.6654v7.9983c0 0.7385-0.1856 1.2936-0.5569 1.6654-0.3661 0.3768-0.8895 0.5653-1.5701 0.5653h-9.0573zm0.02321-0.9397h9.0109c0.3558 0 0.6446-0.112 0.8663-0.3361s0.3326-0.5577 0.3326-1.0007v-7.9066c0-0.43799-0.1186-0.76902-0.3558-0.9931-0.2321-0.22918-0.5621-0.34377-0.9901-0.34377h-8.8639c-0.4383 0-0.77347 0.11459-1.0055 0.34377-0.22688 0.22408-0.34032 0.55511-0.34032 0.9931v7.9066c0 0.443 0.11344 0.7766 0.34032 1.0007 0.23204 0.2241 0.56721 0.3361 1.0055 0.3361zm1.5315-11.222c0-0.53984 0.12634-1.0262 0.379-1.4591 0.25783-0.43289 0.60589-0.77666 1.0442-1.0313 0.4383-0.25973 0.93074-0.3896 1.4773-0.3896 0.54658 0 1.039 0.12987 1.4773 0.3896 0.4383 0.25464 0.78378 0.59841 1.0364 1.0313 0.25782 0.43289 0.38673 0.91925 0.38673 1.4591h-0.95137c0-0.38196-0.08508-0.72063-0.25524-1.016-0.16501-0.30047-0.39447-0.53729-0.68839-0.71044-0.29391-0.17316-0.62908-0.25974-1.0055-0.25974s-0.71159 0.086578-1.0055 0.25974c-0.29392 0.17315-0.52596 0.40997-0.69612 0.71044-0.16501 0.29539-0.24751 0.63406-0.24751 1.016h-0.95137z"/><path d="m21.564 14.756c0 3.7519-3.0415 6.7935-6.7935 6.7935-3.7519 0-6.7935-3.0416-6.7935-6.7935 0-3.752 3.0416-6.7935 6.7935-6.7935 3.752 0 6.7935 3.0415 6.7935 6.7935z" fill="#5856d6" stroke="#5856d6" stroke-width=".5"/><path d="m11.385 14.041-0.30715 0.30715-0.30715-0.30715 0.30715-0.30715zm7.3857 3.4757a0.43444 0.43444 0 1 1-0.86889 0zm-5.5206-0.99618-2.1723-2.1723 0.61432-0.61432 2.1723 2.1723zm-2.1723-2.7865 2.1723-2.1723 0.61432 0.61432-2.1723 2.1723zm0.30715-0.12729h4.3444v0.86889h-4.3444zm7.3857 3.0411v0.86889h-0.86889v-0.86889zm-3.0411-3.0411a3.0411 3.0411 0 0 1 3.0411 3.0411h-0.86889a2.1723 2.1723 0 0 0-2.1723-2.1723z" fill="#fff" stroke-width=".21722"/></svg>
