<svg width="22" height="22" viewBox="0 0 22 22" fill="none" xmlns="http://www.w3.org/2000/svg">
<path d="M2.27399 15.0417C1.52115 15.0417 0.953943 14.8532 0.572366 14.4764C0.190789 14.1046 0 13.5495 0 12.811V4.81272C0 4.07426 0.190789 3.51914 0.572366 3.14737C0.953943 2.7705 1.52115 2.58206 2.27399 2.58206H11.1843C11.932 2.58206 12.4967 2.7705 12.8782 3.14737C13.265 3.52424 13.4583 4.07935 13.4583 4.81272V12.811C13.4583 13.5495 13.2727 14.1046 12.9014 14.4764C12.5353 14.8532 12.0119 15.0417 11.3313 15.0417H2.27399ZM2.2972 14.102H11.3081C11.6639 14.102 11.9527 13.99 12.1744 13.7659C12.3961 13.5418 12.507 13.2082 12.507 12.7652V4.85856C12.507 4.42057 12.3884 4.08954 12.1512 3.86546C11.9191 3.63628 11.5891 3.52169 11.1611 3.52169H2.2972C1.8589 3.52169 1.52373 3.63628 1.29169 3.86546C1.06481 4.08954 0.951365 4.42057 0.951365 4.85856V12.7652C0.951365 13.2082 1.06481 13.5418 1.29169 13.7659C1.52373 13.99 1.8589 14.102 2.2972 14.102ZM3.82866 2.87999C3.82866 2.34015 3.955 1.85379 4.20766 1.4209C4.46549 0.988009 4.81355 0.644243 5.25184 0.389601C5.69014 0.129867 6.18258 0 6.72917 0C7.27575 0 7.76819 0.129867 8.20649 0.389601C8.64479 0.644243 8.99027 0.988009 9.24294 1.4209C9.50076 1.85379 9.62967 2.34015 9.62967 2.87999H8.6783C8.6783 2.49803 8.59322 2.15936 8.42306 1.86397C8.25805 1.5635 8.02859 1.32668 7.73467 1.15353C7.44076 0.980369 7.10559 0.893791 6.72917 0.893791C6.35275 0.893791 6.01758 0.980369 5.72366 1.15353C5.42974 1.32668 5.1977 1.5635 5.02754 1.86397C4.86253 2.15936 4.78003 2.49803 4.78003 2.87999H3.82866Z" fill="black"/>
<path d="M21.9998 14.6252C21.9998 18.3771 18.9583 21.4187 15.2063 21.4187C11.4544 21.4187 8.41284 18.3771 8.41284 14.6252C8.41284 10.8732 11.4544 7.83167 15.2063 7.83167C18.9583 7.83167 21.9998 10.8732 21.9998 14.6252Z" fill="#0071E3"/>
<path d="M15.51 17.4592V12.421H15.4631L14.0075 13.4318V12.8698L15.51 11.8278H16.0407V17.4592H15.51Z" fill="white"/>
</svg>
