<?xml version="1.0" encoding="UTF-8"?>
<svg width="22" height="22" version="1.1" viewBox="0 0 22 22" xml:space="preserve" xmlns="http://www.w3.org/2000/svg"><path d="m2.274 15.042c-0.75284 0-1.32-0.1885-1.7016-0.5653-0.38158-0.3718-0.57237-0.9269-0.57237-1.6654v-7.9983c0-0.73846 0.19079-1.2936 0.57237-1.6654 0.38158-0.37687 0.94878-0.56531 1.7016-0.56531h8.9103c0.7477 0 1.3124 0.18844 1.6939 0.56531 0.3868 0.37687 0.5801 0.93198 0.5801 1.6654v7.9983c0 0.7385-0.1856 1.2936-0.5569 1.6654-0.3661 0.3768-0.8895 0.5653-1.5701 0.5653h-9.0573zm0.02321-0.9397h9.0109c0.3558 0 0.6446-0.112 0.8663-0.3361s0.3326-0.5577 0.3326-1.0007v-7.9066c0-0.43799-0.1186-0.76902-0.3558-0.9931-0.2321-0.22918-0.5621-0.34377-0.9901-0.34377h-8.8639c-0.4383 0-0.77347 0.11459-1.0055 0.34377-0.22688 0.22408-0.34032 0.55511-0.34032 0.9931v7.9066c0 0.443 0.11344 0.7766 0.34032 1.0007 0.23204 0.2241 0.56721 0.3361 1.0055 0.3361zm1.5315-11.222c0-0.53984 0.12634-1.0262 0.379-1.4591 0.25783-0.43289 0.60589-0.77666 1.0442-1.0313 0.4383-0.25973 0.93074-0.3896 1.4773-0.3896 0.54658 0 1.039 0.12987 1.4773 0.3896 0.4383 0.25464 0.78378 0.59841 1.0364 1.0313 0.25782 0.43289 0.38673 0.91925 0.38673 1.4591h-0.95137c0-0.38196-0.08508-0.72063-0.25524-1.016-0.16501-0.30047-0.39447-0.53729-0.68839-0.71044-0.29391-0.17316-0.62908-0.25974-1.0055-0.25974s-0.71159 0.086578-1.0055 0.25974c-0.29392 0.17315-0.52596 0.40997-0.69612 0.71044-0.16501 0.29539-0.24751 0.63406-0.24751 1.016h-0.95137z"/><path d="m21.564 14.756c0 3.7519-3.0415 6.7935-6.7935 6.7935-3.7519 0-6.7935-3.0416-6.7935-6.7935 0-3.752 3.0416-6.7935 6.7935-6.7935 3.752 0 6.7935 3.0415 6.7935 6.7935z" fill="#e30000" stroke="#e30000" stroke-width=".5"/><g transform="matrix(.47111 0 0 .47111 11.121 11.107)" fill="#fff"><path d="m2.6168 2.6168c0.1182-0.11821 0.26174-0.17731 0.4306-0.17731 0.16887 0 0.31029 0.05699 0.42428 0.17097l4.2807 4.2807 4.2744-4.2744c0.114-0.11398 0.2533-0.17308 0.418-0.1773 0.1688 0 0.3124 0.0591 0.4306 0.17731 0.1182 0.1182 0.1773 0.26174 0.1773 0.4306 0 0.16887-0.057 0.31029-0.171 0.42428l-4.2744 4.2744 4.2681 4.2681c0.1182 0.1182 0.1773 0.2617 0.1773 0.4306s-0.0591 0.3124-0.1773 0.4306-0.2618 0.1773-0.4306 0.1773c-0.1647-0.0042-0.3061-0.0654-0.4243-0.1836l-4.2681-4.2681-4.2807 4.2807c-0.11399 0.114-0.25541 0.171-0.42428 0.171-0.16886 0-0.3124-0.0591-0.4306-0.1773-0.11821-0.1182-0.17731-0.2617-0.17731-0.4306 0.00422-0.1646 0.06332-0.304 0.17731-0.4179l4.2807-4.2808-4.2807-4.2807c-0.11399-0.11398-0.17309-0.25329-0.17731-0.41794 0-0.16886 0.0591-0.3124 0.17731-0.4306z" fill="#fff"/></g></svg>
