<svg width="16" height="16" viewBox="0 0 16 16" fill="none" xmlns="http://www.w3.org/2000/svg">
<path d="M2.74695 15.2617C1.58232 15.2617 1 14.8636 1 14.0673C1 13.5364 1.1598 12.9758 1.4794 12.3853C1.80441 11.7895 2.27026 11.2315 2.87696 10.7115C3.48365 10.1861 4.21764 9.75812 5.07893 9.42769C5.94022 9.09726 6.91526 8.93204 8.00406 8.93204C9.08744 8.93204 10.0598 9.09726 10.9211 9.42769C11.7824 9.75812 12.5163 10.1861 13.123 10.7115C13.7297 11.2315 14.1929 11.7895 14.5125 12.3853C14.8375 12.9758 15 13.5364 15 14.0673C15 14.8636 14.415 15.2617 13.2449 15.2617H2.74695ZM2.50319 14.3192H13.5049C13.6891 14.3192 13.8164 14.2921 13.8868 14.2379C13.9627 14.1892 14.0006 14.0998 14.0006 13.9698C14.0006 13.5798 13.8679 13.1518 13.6024 12.686C13.337 12.2201 12.947 11.7732 12.4324 11.3453C11.9232 10.9173 11.2948 10.568 10.5473 10.2971C9.80518 10.0208 8.95744 9.88271 8.00406 9.88271C7.04527 9.88271 6.19211 10.0208 5.44457 10.2971C4.70246 10.568 4.0741 10.9173 3.55949 11.3453C3.0503 11.7732 2.66299 12.2201 2.39756 12.686C2.13213 13.1518 1.99942 13.5798 1.99942 13.9698C1.99942 14.0998 2.03463 14.1892 2.10505 14.2379C2.18089 14.2921 2.3136 14.3192 2.50319 14.3192ZM8.01219 7.81887C7.37841 7.81887 6.80422 7.65365 6.28961 7.32322C5.775 6.98737 5.36332 6.53777 5.05456 5.97441C4.75121 5.41105 4.59954 4.7854 4.59954 4.09745C4.59954 3.42576 4.75121 2.81365 5.05456 2.26112C5.36332 1.7086 5.775 1.26712 6.28961 0.936687C6.80963 0.606256 7.38383 0.44104 8.01219 0.44104C8.64055 0.44104 9.21203 0.603547 9.72664 0.928562C10.2467 1.25358 10.6583 1.69235 10.9617 2.24487C11.2705 2.7974 11.4248 3.40951 11.4248 4.0812C11.4248 4.77457 11.2705 5.40564 10.9617 5.97441C10.6583 6.53777 10.2467 6.98737 9.72664 7.32322C9.21203 7.65365 8.64055 7.81887 8.01219 7.81887ZM8.01219 6.87633C8.45637 6.87633 8.85993 6.75174 9.22287 6.50256C9.59122 6.25338 9.88102 5.91753 10.0923 5.49502C10.309 5.0725 10.4173 4.60123 10.4173 4.0812C10.4173 3.57743 10.309 3.12241 10.0923 2.71614C9.8756 2.30446 9.5858 1.97944 9.22287 1.7411C8.85993 1.50275 8.45637 1.38358 8.01219 1.38358C7.568 1.38358 7.16173 1.50546 6.79338 1.74922C6.43045 1.98757 6.14065 2.31258 5.92397 2.72427C5.70729 3.13595 5.59896 3.59368 5.59896 4.09745C5.59896 4.61748 5.70729 5.08875 5.92397 5.51127C6.14065 5.92837 6.43045 6.26151 6.79338 6.51069C7.16173 6.75445 7.568 6.87633 8.01219 6.87633Z" fill="black"/>
</svg>
