<svg width="17" height="18" viewBox="0 0 17 18" fill="none" xmlns="http://www.w3.org/2000/svg">
<path d="M1.74695 14.8207C0.582318 14.8207 0 14.4225 0 13.6262C0 13.0954 0.159799 12.5347 0.479396 11.9443C0.804411 11.3484 1.27026 10.7905 1.87696 10.2705C2.48365 9.74502 3.21764 9.31708 4.07893 8.98665C4.94022 8.65622 5.91526 8.491 7.00406 8.491C8.08744 8.491 9.05978 8.65622 9.92107 8.98665C10.7824 9.31708 11.5163 9.74502 12.123 10.2705C12.7297 10.7905 13.1929 11.3484 13.5125 11.9443C13.8375 12.5347 14 13.0954 14 13.6262C14 14.4225 13.415 14.8207 12.2449 14.8207H1.74695ZM1.50319 13.8781H12.5049C12.6891 13.8781 12.8164 13.851 12.8868 13.7969C12.9627 13.7481 13.0006 13.6587 13.0006 13.5287C13.0006 13.1387 12.8679 12.7108 12.6024 12.2449C12.337 11.7791 11.947 11.3322 11.4324 10.9042C10.9232 10.4763 10.2948 10.1269 9.5473 9.85606C8.80518 9.5798 7.95744 9.44167 7.00406 9.44167C6.04527 9.44167 5.19211 9.5798 4.44457 9.85606C3.70246 10.1269 3.0741 10.4763 2.55949 10.9042C2.0503 11.3322 1.66299 11.7791 1.39756 12.2449C1.13213 12.7108 0.99942 13.1387 0.99942 13.5287C0.99942 13.6587 1.03463 13.7481 1.10505 13.7969C1.18089 13.851 1.3136 13.8781 1.50319 13.8781ZM7.01219 7.37783C6.37841 7.37783 5.80422 7.21261 5.28961 6.88218C4.775 6.54633 4.36332 6.09673 4.05456 5.53337C3.75121 4.97001 3.59954 4.34436 3.59954 3.65641C3.59954 2.98472 3.75121 2.37261 4.05456 1.82008C4.36332 1.26756 4.775 0.826079 5.28961 0.495647C5.80963 0.165216 6.38383 0 7.01219 0C7.64055 0 8.21203 0.162507 8.72664 0.487522C9.24666 0.812536 9.65835 1.25131 9.96169 1.80383C10.2705 2.35636 10.4248 2.96847 10.4248 3.64016C10.4248 4.33353 10.2705 4.9646 9.96169 5.53337C9.65835 6.09673 9.24666 6.54633 8.72664 6.88218C8.21203 7.21261 7.64055 7.37783 7.01219 7.37783ZM7.01219 6.43529C7.45637 6.43529 7.85993 6.3107 8.22287 6.06152C8.59122 5.81234 8.88102 5.47649 9.09228 5.05398C9.30896 4.63146 9.4173 4.16019 9.4173 3.64016C9.4173 3.13639 9.30896 2.68137 9.09228 2.2751C8.8756 1.86342 8.5858 1.5384 8.22287 1.30006C7.85993 1.06171 7.45637 0.942542 7.01219 0.942542C6.568 0.942542 6.16173 1.06442 5.79338 1.30818C5.43045 1.54653 5.14065 1.87154 4.92397 2.28323C4.70729 2.69491 4.59896 3.15264 4.59896 3.65641C4.59896 4.17644 4.70729 4.64771 4.92397 5.07023C5.14065 5.48733 5.43045 5.82047 5.79338 6.06965C6.16173 6.31341 6.568 6.43529 7.01219 6.43529Z" fill="black"/>
<circle cx="13.5" cy="14.059" r="3.5" fill="#BF4800"/>
</svg>
