<svg width="16" height="16" viewBox="0 0 16 16" fill="none" xmlns="http://www.w3.org/2000/svg">
<path d="M13.1067 15.3754H3.38443C2.56102 15.3754 1.89123 14.7055 1.89123 13.8821L1.89111 7.4696H2.6248V13.8821C2.6248 14.3008 2.96556 14.6416 3.38432 14.6416H13.1069C13.5256 14.6416 13.8664 14.301 13.8664 13.8821L13.8665 7.4696H14.6002V13.8821C14.6002 14.7055 13.9303 15.3754 13.1069 15.3754H13.1067Z" fill="#707070"/>
<path d="M6.52898 8.04204C5.37788 8.04204 4.44141 7.10545 4.44141 5.95447H5.17509C5.17509 6.70091 5.78242 7.30824 6.52898 7.30824C7.27554 7.30824 7.88286 6.70091 7.88286 5.95447H8.61655C8.61655 7.10545 7.68008 8.04204 6.52898 8.04204Z" fill="#707070"/>
<path d="M9.97039 8.04384C8.81929 8.04384 7.88281 7.10726 7.88281 5.95627V4.43201H8.6165V5.95627C8.6165 6.70272 9.22383 7.31004 9.97039 7.31004C10.7169 7.31004 11.3243 6.70272 11.3243 5.95627H12.058C12.058 7.10726 11.1215 8.04384 9.97039 8.04384Z" fill="#707070"/>
<path d="M13.4123 8.04286C12.2612 8.04286 11.3247 7.10627 11.3247 5.95529V4.43102H12.0584V5.95529C12.0584 6.70173 12.6657 7.30906 13.4123 7.30906C14.1588 7.30906 14.7663 6.70173 14.7663 5.95529V4.54174L13.564 2.73392H2.93596L1.73369 4.54163V5.95517C1.73369 6.70162 2.34113 7.30894 3.08769 7.30894C3.83424 7.30894 4.44157 6.70162 4.44157 5.95517V4.43091H5.17526V5.95517C5.17526 7.10627 4.23879 8.04275 3.08769 8.04275C1.93647 8.04275 1 7.10616 1 5.95517V4.43091C1 4.35862 1.02134 4.2879 1.06134 4.22768L2.43375 2.16379C2.50168 2.06145 2.61642 2 2.73922 2H13.7606C13.8833 2 13.9981 2.06145 14.066 2.16379L15.4387 4.22779C15.4788 4.28802 15.5 4.35874 15.5 4.43102V5.95529C15.5 7.10627 14.5635 8.04286 13.4123 8.04286H13.4123Z" fill="#707070"/>
<path d="M1.3667 4.06055H15.1332V4.79435H1.3667V4.06055Z" fill="#707070"/>
<path fill-rule="evenodd" clip-rule="evenodd" d="M9.91424 10.739H6.34847C6.25001 10.739 6.17018 10.8188 6.17018 10.9173V14.483C6.17018 14.5815 6.25001 14.6613 6.34847 14.6613H9.91424C10.0127 14.6613 10.0925 14.5815 10.0925 14.483V10.9173C10.0925 10.8188 10.0127 10.739 9.91424 10.739ZM6.34847 10.0258C5.85614 10.0258 5.45703 10.4249 5.45703 10.9173V14.483C5.45703 14.9754 5.85614 15.3745 6.34847 15.3745H9.91424C10.4066 15.3745 10.8057 14.9754 10.8057 14.483V10.9173C10.8057 10.4249 10.4066 10.0258 9.91424 10.0258H6.34847Z" fill="#707070"/>
</svg>
