<svg width="17" height="17" viewBox="0 0 17 17" fill="none" xmlns="http://www.w3.org/2000/svg">
<path d="M9.7157 5.36462H3.90039V5.46506H9.7157V5.36462Z" stroke="#707070" stroke-width="0.803497" stroke-linecap="round" stroke-linejoin="round"/>
<path d="M9.7157 8.22711H3.90039V8.32755H9.7157V8.22711Z" stroke="#707070" stroke-width="0.803497" stroke-linecap="round" stroke-linejoin="round"/>
<path d="M6.30089 13.6306V12.2145C6.30089 11.9481 6.40671 11.6926 6.59507 11.5043C6.78342 11.3159 7.03889 11.2101 7.30527 11.2101H12.0861V3.22533C12.0861 2.90035 11.957 2.58869 11.7272 2.35889C11.4974 2.1291 11.1857 2 10.8607 2H2.72533C2.40035 2 2.08869 2.1291 1.85889 2.35889C1.6291 2.58869 1.5 2.90035 1.5 3.22533V14.4442C1.5 14.7691 1.6291 15.0808 1.85889 15.3106C2.08869 15.5404 2.40035 15.6695 2.72533 15.6695H4.36246C4.88818 15.6511 5.38574 15.4273 5.7482 15.0461C6.11066 14.6648 6.30911 14.1566 6.30089 13.6306Z" stroke="#707070" stroke-width="0.803497" stroke-miterlimit="10" stroke-linecap="round"/>
<path d="M15.069 13.9521C15.0646 13.9187 15.0646 13.885 15.069 13.8516C15.069 13.3093 15.069 12.7669 15.069 12.2145C15.069 11.9481 14.9632 11.6927 14.7749 11.5043C14.5865 11.316 14.3311 11.2101 14.0647 11.2101H7.33539C7.06901 11.2101 6.81354 11.316 6.62519 11.5043C6.43683 11.6927 6.33101 11.9481 6.33101 12.2145V13.6307C6.33133 14.1515 6.12938 14.652 5.76774 15.0268C5.4061 15.4015 4.91305 15.6212 4.39258 15.6394H13.0302C13.2778 15.6682 13.5287 15.6436 13.766 15.5674C14.0033 15.4911 14.2216 15.365 14.4062 15.1975C14.7655 14.8723 15 14.4318 15.069 13.9521Z" stroke="#707070" stroke-width="0.803497" stroke-miterlimit="10" stroke-linecap="round"/>
</svg>
