<?xml version="1.0" encoding="UTF-8" standalone="no"?>
<svg
   width="16"
   height="16"
   viewBox="0 0 16 16"
   fill="none"
   version="1.1"
   id="svg1"
   xmlns="http://www.w3.org/2000/svg"
   xmlns:svg="http://www.w3.org/2000/svg">
  <defs
     id="defs1" />
  <path
     id="rect1"
     style="display:inline;fill:#ffffff;stroke-width:1.3469"
     d="m 7.9277344,1.3027344 c -0.01457,0 -0.028399,0.025659 -0.042969,0.074219 L 6.515625,5.8261719 c -0.03884,0.1262498 -0.1010538,0.2190738 -0.1835938,0.2773437 -0.08254,0.05826 -0.1862601,0.084938 -0.3125,0.080078 L 1.359375,6.125 c -0.04856,0 -0.075218,0.00691 -0.080078,0.021484 -0.00971,0.01942 0.00413,0.045089 0.042969,0.074219 l 3.8164063,2.671875 c 0.06798,0.04856 0.1213163,0.1048488 0.1601562,0.1679688 0.03885,0.05826 0.058594,0.1244257 0.058594,0.1972656 0.00486,0.06797 -0.00797,0.1420595 -0.037109,0.2246094 l -1.5,4.4062502 c -0.01457,0.0486 -0.01457,0.07528 0,0.08008 0.00971,0.0146 0.036378,0.0076 0.080078,-0.02148 l 3.7148438,-2.796875 c 0.1019599,-0.0777 0.2056801,-0.115235 0.3125,-0.115235 0.1116799,0 0.2183526,0.03754 0.3203125,0.115235 l 3.7148442,2.796875 c 0.0437,0.0291 0.07028,0.03608 0.08008,0.02148 0.0097,-0.0048 0.0097,-0.03148 0,-0.08008 l -1.5,-4.4062502 c -0.0291,-0.08255 -0.04492,-0.1566395 -0.04492,-0.2246094 0.0049,-0.07284 0.02751,-0.1390057 0.06641,-0.1972656 0.0388,-0.06312 0.09216,-0.1194088 0.160156,-0.1679688 l 3.816407,-2.671875 c 0.0389,-0.02913 0.05568,-0.054799 0.05078,-0.074219 C 14.582105,6.131914 14.552505,6.125 14.503905,6.125 L 9.84375,6.1835938 C 9.7175101,6.1884537 9.6137899,6.1617756 9.53125,6.1035156 9.4487101,6.0452457 9.3864962,5.9524217 9.3476562,5.8261719 L 7.9785156,1.3769531 c -0.00971,-0.04856 -0.026501,-0.074219 -0.050781,-0.074219 z" />
  <path
     d="M 3.04093,15.04 C 2.91954,14.9477 2.84428,14.8263 2.81515,14.6758 2.79087,14.5253 2.81757,14.3383 2.89526,14.115 L 4.4466,9.4537 0.44808,6.56952 C 0.258715,6.43842 0.130043,6.30489 0.0620662,6.16894 -0.00591107,6.02813 -0.0180499,5.88489 0.0256498,5.73922 0.074205,5.59841 0.16646,5.49159 0.302414,5.41876 0.438369,5.34593 0.625306,5.31194 0.863227,5.31679 L 5.77216,5.33864 7.26523,0.655495 C 7.34292,0.432141 7.43517,0.267054 7.54199,0.160232 7.65367,0.0534107 7.78234,0 7.92801,0 8.07853,0 8.20963,0.0534107 8.32131,0.160232 8.43298,0.267054 8.52524,0.432141 8.59807,0.655495 L 10.0911,5.33864 15.0074,5.31679 c 0.233,-0.00485 0.4175,0.02914 0.5535,0.10197 0.1359,0.07283 0.2282,0.17965 0.2767,0.32046 0.0437,0.14567 0.0316,0.28891 -0.0364,0.42972 -0.0679,0.13595 -0.1966,0.26948 -0.386,0.40058 l -3.9985,2.88418 1.5586,4.6613 c 0.0729,0.2233 0.0947,0.4103 0.0656,0.5608 -0.0243,0.1505 -0.0971,0.2719 -0.2185,0.3642 -0.1214,0.0922 -0.2598,0.1238 -0.4152,0.0947 -0.1505,-0.0243 -0.318,-0.102 -0.5025,-0.2331 L 7.92801,11.9883 3.95862,14.9016 C 3.77411,15.0327 3.60417,15.1104 3.44879,15.1347 3.29827,15.1638 3.16232,15.1322 3.04093,15.04 Z m 0.77931,-1.0707 c 0.00971,0.0146 0.03641,0.0073 0.08011,-0.0218 l 3.71448,-2.7968 c 0.10196,-0.0777 0.20636,-0.1165 0.31318,-0.1165 0.11168,0 0.2185,0.0388 0.32046,0.1165 l 3.71443,2.7968 c 0.0437,0.0291 0.0704,0.0364 0.0802,0.0218 0.0097,-0.0048 0.0097,-0.0315 0,-0.0801 L 10.5427,9.48283 C 10.5136,9.40028 10.499,9.32502 10.499,9.25705 10.5039,9.18421 10.5257,9.11866 10.5646,9.0604 10.6034,8.99728 10.6568,8.94144 10.7248,8.89288 L 14.5412,6.21992 C 14.5801,6.19079 14.5971,6.16651 14.5922,6.14709 14.5825,6.13252 14.5534,6.12524 14.5048,6.12524 L 9.84351,6.1835 C 9.71727,6.18836 9.61287,6.16165 9.53033,6.10339 9.44779,6.04512 9.38709,5.95287 9.34825,5.82662 L 7.97899,1.37654 C 7.96928,1.32798 7.95229,1.30371 7.92801,1.30371 c -0.01457,0 -0.02913,0.02427 -0.0437,0.07283 L 6.51505,5.82662 C 6.47621,5.95287 6.41551,6.04512 6.33297,6.10339 6.25043,6.16165 6.14603,6.18836 6.01979,6.1835 L 1.35849,6.12524 c -0.04856,0 -0.07526,0.00728 -0.08012,0.02185 -0.00971,0.01942 0.00486,0.0437 0.0437,0.07283 L 5.13851,8.89288 C 5.20649,8.94144 5.2599,8.99728 5.29874,9.0604 5.33759,9.11866 5.35701,9.18421 5.35701,9.25705 5.36187,9.32502 5.34973,9.40028 5.32059,9.48283 L 3.82024,13.8892 c -0.01457,0.0486 -0.01457,0.0753 0,0.0801 z"
     fill="#000000"
     id="path3"
     style="display:inline" />
  <path
     id="path6"
     style="display:inline;fill:#ffff00;stroke-width:1.3469"
     d="M 7.9277344,11.037109 V 1.3066406 c -0.017138,0.00803 -0.029313,0.031322 -0.037109,0.070312 l -1.369141,4.4492193 c -0.03884,0.1262496 -0.1010539,0.2190738 -0.1835938,0.2773437 -0.08254,0.05826 -0.1862602,0.084938 -0.3125,0.080078 L 1.3652344,6.125 c -0.0486,0 -0.078191,0.00691 -0.087891,0.021484 -0.0049,0.01942 0.011881,0.045089 0.050781,0.074219 l 3.8164062,2.671875 c 0.067996,0.04856 0.1213563,0.1048488 0.1601563,0.1679688 0.0389,0.05826 0.061506,0.1244257 0.066406,0.1972656 -1e-7,0.06797 -0.015822,0.1420595 -0.044922,0.2246094 l -1.5,4.4062502 c -0.0097,0.0486 -0.0097,0.07528 0,0.08008 0.0098,0.0146 0.036378,0.0076 0.080078,-0.02148 l 3.7148438,-2.796875 c 0.097791,-0.07452 0.199919,-0.110333 0.3066406,-0.113282 z" />
</svg>
