<svg width="16" height="16" viewBox="0 0 16 16" fill="none" xmlns="http://www.w3.org/2000/svg">
<path d="M2.55923 13.3301C1.87749 13.3301 1.36385 13.1573 1.01831 12.8118C0.67277 12.4709 0.5 11.9619 0.5 11.2849V3.54522C0.5 2.86815 0.665766 2.35918 0.997298 2.01831C1.3335 1.67277 1.80978 1.5 2.42615 1.5H13.6539C14.3403 1.5 14.8563 1.67277 15.2018 2.01831C15.5473 2.36385 15.7201 2.87282 15.7201 3.54522V11.2849C15.7201 11.9619 15.552 12.4709 15.2158 12.8118C14.8843 13.1573 14.4103 13.3301 13.794 13.3301H2.55923ZM2.54522 12.5036H13.6749C14.0624 12.5036 14.3613 12.4009 14.5714 12.1954C14.7862 11.9899 14.8936 11.6864 14.8936 11.2849V3.55223C14.8936 3.14598 14.7862 2.84014 14.5714 2.63468C14.3613 2.42922 14.0624 2.32649 13.6749 2.32649H2.54522C2.14832 2.32649 1.8448 2.42922 1.63468 2.63468C1.42922 2.84014 1.32649 3.14598 1.32649 3.55223V11.2779C1.32649 11.6841 1.42922 11.9899 1.63468 12.1954C1.8448 12.4009 2.14832 12.5036 2.54522 12.5036ZM8.13457 9.15558C7.9151 9.15558 7.6933 9.10655 7.46917 9.00849C7.24504 8.91043 7.01857 8.75167 6.78976 8.53221L1.01131 2.87282L1.58565 2.29848L7.28006 7.90183C7.42481 8.04658 7.56956 8.15398 7.71432 8.22402C7.86374 8.2894 8.00382 8.32208 8.13457 8.32208C8.26998 8.32208 8.40773 8.2894 8.54782 8.22402C8.69257 8.15865 8.84199 8.05125 8.99608 7.90183L14.6695 2.31949L15.2438 2.89383L9.47937 8.53221C9.25057 8.75167 9.0241 8.91043 8.79997 9.00849C8.5805 9.10655 8.3587 9.15558 8.13457 9.15558ZM14.5924 12.5106L9.90663 7.92985L10.474 7.36251L15.1598 11.9292L14.5924 12.5106ZM1.09536 11.9503L5.79517 7.36251L6.36951 7.92985L1.65569 12.5316L1.09536 11.9503Z" fill="#707070"/>
</svg>
