<svg width="16" height="16" viewBox="0 0 16 16" fill="none" xmlns="http://www.w3.org/2000/svg">
<path d="M0.5 5.50468C0.5 4.84246 0.605236 4.23671 0.815708 3.68743C1.02618 3.13815 1.32392 2.66331 1.70893 2.26289C2.09394 1.85735 2.54312 1.54678 3.05647 1.33117C3.56982 1.11043 4.12936 1.00006 4.73511 1.00006C5.43326 1.00006 6.06982 1.1669 6.64476 1.50057C7.21971 1.82912 7.67146 2.26803 8 2.81731C8.32854 2.26803 8.78029 1.82912 9.35524 1.50057C9.93018 1.1669 10.5667 1.00006 11.2649 1.00006C11.8706 1.00006 12.4302 1.11043 12.9435 1.33117C13.462 1.54678 13.9112 1.85735 14.2911 2.26289C14.6761 2.66331 14.9738 3.13815 15.1843 3.68743C15.3948 4.23671 15.5 4.84246 15.5 5.50468C15.5 6.57244 15.2074 7.62994 14.6222 8.67717C14.0421 9.72439 13.2233 10.746 12.1658 11.7418C11.1134 12.7377 9.88142 13.69 8.46971 14.5986C8.40298 14.6448 8.32597 14.6859 8.23871 14.7218C8.15144 14.7578 8.07187 14.7757 8 14.7757C7.93326 14.7757 7.85626 14.7578 7.76899 14.7218C7.68172 14.6859 7.60216 14.6448 7.53029 14.5986C6.12372 13.69 4.89168 12.7377 3.83419 11.7418C2.78183 10.746 1.96304 9.72439 1.37782 8.67717C0.792608 7.62994 0.5 6.57244 0.5 5.50468ZM1.44713 5.50468C1.44713 6.22337 1.6191 6.94975 1.96304 7.68384C2.31211 8.41279 2.78439 9.13148 3.37988 9.8399C3.98049 10.5483 4.66581 11.2311 5.43583 11.8882C6.20585 12.5401 7.01694 13.1459 7.8691 13.7054C7.93583 13.7567 7.97947 13.7824 8 13.7824C8.02053 13.7824 8.06673 13.7567 8.1386 13.7054C8.99076 13.1459 9.80185 12.5401 10.5719 11.8882C11.3419 11.2311 12.0246 10.5483 12.6201 9.8399C13.2207 9.13148 13.693 8.41279 14.037 7.68384C14.3809 6.94975 14.5529 6.22337 14.5529 5.50468C14.5529 4.79626 14.4091 4.17511 14.1217 3.64123C13.8393 3.10735 13.4517 2.69154 12.9589 2.3938C12.4661 2.09606 11.904 1.94719 11.2726 1.94719C10.8003 1.94719 10.3845 2.03446 10.0252 2.20899C9.66581 2.3784 9.35524 2.59914 9.09343 2.87121C8.83162 3.14328 8.60832 3.42563 8.42351 3.71823C8.34138 3.84144 8.26951 3.92614 8.20791 3.97234C8.1463 4.01854 8.077 4.04164 8 4.04164C7.923 4.04164 7.8537 4.01854 7.79209 3.97234C7.73049 3.92614 7.65606 3.84144 7.56879 3.71823C7.39425 3.42049 7.17608 3.13815 6.91427 2.87121C6.6576 2.59914 6.34702 2.3784 5.98255 2.20899C5.6232 2.03446 5.20483 1.94719 4.72741 1.94719C4.096 1.94719 3.53388 2.09606 3.04107 2.3938C2.54825 2.69154 2.15811 3.10735 1.87064 3.64123C1.5883 4.17511 1.44713 4.79626 1.44713 5.50468Z" fill="black"/>
</svg>
