<?xml version="1.0" encoding="UTF-8"?>
<!-- Generator: Adobe Illustrator 27.8.1, SVG Export Plug-In . SVG Version: 6.00 Build 0)  -->
<svg enable-background="new 0 0 239.72 48" version="1.1" viewBox="0 0 239.72 48" xml:space="preserve" xmlns="http://www.w3.org/2000/svg">
<style type="text/css">
	.st0{fill:#FFFFFF;}
	.st1{fill:none;stroke:#FFFFFF;stroke-width:0.839;stroke-miterlimit:10;}
	.st2{fill:none;stroke:#000000;stroke-width:0.839;stroke-miterlimit:10;}
</style>

	
		
			
				
					<path d="m33.85 24.09c-0.15-2.86-0.34-6.32-0.34-8.84h-0.06c-0.73 2.37-1.57 4.95-2.61 7.78l-3.64 9.95h-2.02l-3.37-9.76c-0.98-2.92-1.78-5.53-2.36-7.97h-0.06c-0.06 2.56-0.22 5.96-0.4 9.06l-0.55 8.79h-2.54l1.44-20.49h3.4l3.53 9.91c0.86 2.52 1.53 4.77 2.08 6.91h0.06c0.55-2.07 1.28-4.32 2.21-6.91l3.68-9.91h3.4l1.29 20.49h-2.64l-0.5-9.01z"/>
				
			
			
				
					<path d="m51.6 29.56c0 1.27 0.06 2.52 0.22 3.53h-2.42l-0.21-1.85h-0.09c-0.83 1.16-2.42 2.19-4.54 2.19-3 0-4.53-2.1-4.53-4.22 0-3.56 3.19-5.51 8.92-5.48v-0.3c0-1.18-0.34-3.4-3.37-3.37-1.41 0-2.85 0.39-3.9 1.09l-0.61-1.79c1.23-0.76 3.04-1.28 4.91-1.28 4.54 0 5.64 3.07 5.64 5.99v5.49zm-2.61-3.98c-2.94-0.06-6.28 0.46-6.28 3.32 0 1.76 1.16 2.55 2.51 2.55 1.96 0 3.22-1.21 3.65-2.46 0.1-0.3 0.12-0.61 0.12-0.85v-2.56z"/>
				
			
			
				
					<path d="m66.53 32.57c-0.7 0.33-2.27 0.85-4.26 0.85-4.47 0-7.39-3.01-7.39-7.51 0-4.53 3.13-7.84 7.97-7.84 1.59 0 3 0.4 3.74 0.79l-0.61 2.04c-0.64-0.34-1.65-0.7-3.13-0.7-3.4 0-5.24 2.53-5.24 5.57 0 3.4 2.21 5.5 5.15 5.5 1.53 0 2.54-0.36 3.31-0.69l0.46 1.99z"/>
				
			
			
				
					<path d="m69.44 29.87c1.19 0.76 2.91 1.34 4.75 1.34 2.73 0 4.32-1.43 4.32-3.49 0-1.89-1.1-3.01-3.89-4.04-3.37-1.22-5.45-2.98-5.45-5.84 0-3.19 2.67-5.57 6.68-5.57 2.09 0 3.65 0.49 4.54 1l-0.73 2.16c-0.64-0.4-2.02-0.98-3.89-0.98-2.82 0-3.89 1.67-3.89 3.07 0 1.92 1.26 2.86 4.11 3.95 3.49 1.33 5.24 3.01 5.24 6.01 0 3.16-2.33 5.93-7.2 5.93-1.99 0-4.17-0.61-5.27-1.34l0.68-2.2z"/>
				
			
			
				
					<path d="m87.96 14.85v3.53h3.86v2.03h-3.86v7.93c0 1.83 0.52 2.86 2.02 2.86 0.74 0 1.17-0.06 1.57-0.19l0.12 2.04c-0.52 0.18-1.35 0.36-2.39 0.36-1.26 0-2.27-0.43-2.91-1.13-0.74-0.82-1.04-2.13-1.04-3.85v-8.03h-2.3v-2.03h2.3v-2.74l2.63-0.78z"/>
				
			
			
				
					<path d="m108.1 25.61c0 5.44-3.83 7.81-7.39 7.81-3.99 0-7.11-2.92-7.11-7.57 0-4.9 3.28-7.78 7.36-7.78 4.25 0 7.14 3.07 7.14 7.54zm-11.74 0.15c0 3.22 1.84 5.65 4.47 5.65 2.58 0 4.51-2.4 4.51-5.71 0-2.49-1.26-5.62-4.44-5.62-3.16 0-4.54 2.91-4.54 5.68z"/>
				
			
			
				
					<path d="m111.5 22.97c0-1.74-0.03-3.23-0.12-4.59h2.36l0.12 2.91h0.09c0.67-1.97 2.33-3.22 4.14-3.22 0.28 0 0.49 0.04 0.74 0.06v2.53c-0.28-0.06-0.55-0.06-0.92-0.06-1.9 0-3.25 1.39-3.62 3.4-0.06 0.36-0.09 0.82-0.09 1.25v7.84h-2.7v-10.12z"/>
				
			
			
				
					<path d="m122.72 26.22c0.06 3.62 2.36 5.11 5.09 5.11 1.93 0 3.12-0.33 4.11-0.76l0.49 1.91c-0.95 0.42-2.6 0.94-4.96 0.94-4.57 0-7.3-3.01-7.3-7.45s2.64-7.9 6.96-7.9c4.87 0 6.13 4.2 6.13 6.9 0 0.55-0.03 0.94-0.09 1.25h-10.43zm7.91-1.92c0.03-1.67-0.71-4.32-3.74-4.32-2.76 0-3.92 2.46-4.13 4.32h7.87z"/>
				
			
		
		
			<path class="st2" d="m135.13 42.2h-122.27c-3.27 0-5.92-2.65-5.92-5.92v-24.56c0-3.27 2.65-5.92 5.92-5.92h122.27c3.27 0 5.92 2.65 5.92 5.92v24.56c0 3.27-2.65 5.92-5.92 5.92z"/>
		
	
	
		
			<path d="m189.2 25.91c1.25 0 2.13 0.88 2.13 2.15 0 1.26-0.89 2.14-2.15 2.14h-1.59v2.36h-0.85v-6.65h2.46zm-1.6 3.53h1.38c0.94 0 1.48-0.51 1.48-1.39 0-0.89-0.53-1.4-1.48-1.4h-1.38v2.79z"/>
			<path d="m191.83 31.19c0-0.86 0.64-1.37 1.78-1.43l1.4-0.08v-0.42c0-0.59-0.38-0.92-1.07-0.92-0.59 0-1 0.25-1.1 0.67h-0.8c0.06-0.82 0.86-1.39 1.92-1.39 1.16 0 1.86 0.62 1.86 1.6v3.35h-0.77v-0.78h-0.05c-0.3 0.54-0.88 0.87-1.53 0.87-0.96-0.01-1.64-0.59-1.64-1.47zm3.18-0.47v-0.42l-1.3 0.08c-0.7 0.05-1.05 0.31-1.05 0.78 0 0.48 0.41 0.77 0.98 0.77 0.78 0.02 1.37-0.51 1.37-1.21z"/>
			<path d="m197.06 27.67h0.77v0.76h0.05c0.14-0.5 0.66-0.83 1.27-0.83 0.13 0 0.28 0.01 0.36 0.02v0.8c-0.06-0.02-0.29-0.05-0.47-0.05-0.69 0-1.17 0.47-1.17 1.17v3.01h-0.82v-4.88z"/>
			<path d="m201.58 26.45v1.22h1.02v0.67h-1.02v2.81c0 0.51 0.2 0.73 0.67 0.73 0.12 0 0.25-0.01 0.35-0.02v0.68c-0.13 0.03-0.32 0.04-0.49 0.04-0.96 0-1.34-0.37-1.34-1.3v-2.94h-0.76v-0.67h0.76v-1.22h0.81z"/>
			<path d="m203.62 27.67h0.77v0.79h0.05c0.27-0.55 0.76-0.86 1.51-0.86 1.08 0 1.7 0.67 1.7 1.81v3.15h-0.82v-2.98c0-0.83-0.37-1.25-1.13-1.25-0.77 0-1.26 0.53-1.26 1.36v2.86h-0.82v-4.88z"/>
			<path d="m212.92 31.22c-0.18 0.85-0.99 1.41-2.05 1.41-1.37 0-2.23-0.97-2.23-2.5s0.87-2.53 2.21-2.53c1.32 0 2.13 0.93 2.13 2.43v0.31h-3.5v0.04c0.02 0.94 0.57 1.54 1.41 1.54 0.61 0 1.06-0.26 1.23-0.7h0.8zm-3.44-1.52h2.65c-0.02-0.83-0.53-1.39-1.3-1.39-0.76 0-1.29 0.56-1.35 1.39z"/>
			<path d="m214 27.67h0.77v0.76h0.05c0.14-0.5 0.66-0.83 1.27-0.83 0.13 0 0.28 0.01 0.36 0.02v0.8c-0.06-0.02-0.29-0.05-0.47-0.05-0.69 0-1.17 0.47-1.17 1.17v3.01h-0.81v-4.88z"/>
		
		
			<path d="m189.19 16.32c1.25 0 2.12 0.88 2.12 2.14 0 1.25-0.89 2.13-2.14 2.13h-1.58v2.35h-0.84v-6.61h2.44zm-1.6 3.51h1.38c0.93 0 1.48-0.5 1.48-1.38 0-0.89-0.53-1.39-1.48-1.39h-1.38v2.77z"/>
			<path d="m192.34 18.07h0.77v0.76h0.05c0.14-0.5 0.66-0.83 1.26-0.83 0.13 0 0.27 0.01 0.36 0.02v0.8c-0.06-0.02-0.29-0.05-0.47-0.05-0.69 0-1.16 0.47-1.16 1.16v2.99h-0.81v-4.85z"/>
			<path d="m199.43 21.6c-0.18 0.84-0.99 1.4-2.04 1.4-1.37 0-2.22-0.96-2.22-2.48s0.86-2.51 2.2-2.51c1.31 0 2.12 0.93 2.12 2.42v0.31h-3.48v0.04c0.02 0.93 0.57 1.53 1.4 1.53 0.61 0 1.05-0.26 1.22-0.69h0.8zm-3.42-1.51h2.64c-0.02-0.83-0.53-1.38-1.29-1.38-0.75 0-1.29 0.55-1.35 1.38z"/>
			<path d="m200.51 18.07h0.77v0.78h0.05c0.22-0.54 0.73-0.85 1.37-0.85 0.66 0 1.14 0.34 1.35 0.89h0.05c0.27-0.55 0.83-0.89 1.51-0.89 0.98 0 1.56 0.6 1.56 1.59v3.34h-0.81v-3.15c0-0.69-0.35-1.05-1.01-1.05s-1.1 0.49-1.1 1.12v3.08h-0.81v-3.25c0-0.58-0.39-0.95-1-0.95-0.63 0-1.11 0.52-1.11 1.2v3.01h-0.81v-4.87z"/>
			<path d="m208.3 16.65c0-0.29 0.24-0.53 0.53-0.53s0.53 0.23 0.53 0.53c0 0.29-0.24 0.53-0.53 0.53s-0.53-0.24-0.53-0.53zm0.12 1.42h0.81v4.86h-0.81v-4.86z"/>
			<path d="m214.49 22.93h-0.77v-0.78h-0.05c-0.27 0.55-0.77 0.85-1.52 0.85-1.07 0-1.67-0.67-1.67-1.8v-3.13h0.81v2.96c0 0.82 0.35 1.24 1.1 1.24 0.82 0 1.28-0.52 1.28-1.35v-2.85h0.81v4.86z"/>
			<path d="m215.75 18.07h0.77v0.78h0.05c0.22-0.54 0.73-0.85 1.37-0.85 0.66 0 1.14 0.34 1.35 0.89h0.05c0.27-0.55 0.83-0.89 1.51-0.89 0.98 0 1.56 0.6 1.56 1.59v3.34h-0.81v-3.15c0-0.69-0.35-1.05-1.01-1.05s-1.1 0.49-1.1 1.12v3.08h-0.81v-3.25c0-0.58-0.39-0.95-1-0.95-0.63 0-1.11 0.52-1.11 1.2v3.01h-0.81v-4.87z"/>
		
		
			
				<path d="m175.31 16.13c0.74-0.88 1.22-2.12 1.09-3.32-1.07 0.03-2.35 0.69-3.07 1.59-0.7 0.78-1.17 2.02-1.01 3.2 1.07 0.08 2.25-0.59 2.99-1.47"/>
			
			
				<path d="m180.74 27.85c-0.02 0.08-0.43 1.48-1.41 2.96-0.9 1.29-1.83 2.52-3.22 2.55-1.43 0.01-1.88-0.8-3.48-0.8-1.49 0-1.99 0.76-3.31 0.81-1.37 0.06-2.4-1.33-3.3-2.61-1.79-2.59-3.14-7.22-1.32-10.28 0.92-1.57 2.56-2.57 4.33-2.58 1.35-0.04 2.62 0.89 3.41 0.89 0.76 0 2.28-1.12 3.93-0.95 0.64 0.03 2.61 0.28 3.81 2.06-0.09 0.05-2.3 1.32-2.27 3.82 0.04 3.14 2.8 4.12 2.83 4.13"/>
			
		
		
			<path class="st2" d="m226.86 42.2h-66.81c-3.27 0-5.92-2.65-5.92-5.92v-24.56c0-3.27 2.65-5.92 5.92-5.92h66.81c3.27 0 5.92 2.65 5.92 5.92v24.56c-0.01 3.27-2.66 5.92-5.92 5.92z"/>
		
	

</svg>
